M48
; DRILL file {KiCad 9.0.7} date 2026-03-04T10:02:00+0100
; FORMAT={-:-/ absolute / metric / decimal}
; #@! TF.CreationDate,2026-03-04T10:02:00+01:00
; #@! TF.GenerationSoftware,Kicad,Pcbnew,9.0.7
; #@! TF.FileFunction,Plated,1,2,PTH
FMAT,2
METRIC
; #@! TA.AperFunction,Plated,PTH,ViaDrill
T1C0.300
; #@! TA.AperFunction,Plated,PTH,ViaDrill
T2C0.500
; #@! TA.AperFunction,Plated,PTH,ComponentDrill
T3C0.800
; #@! TA.AperFunction,Plated,PTH,ComponentDrill
T4C0.950
; #@! TA.AperFunction,Plated,PTH,ComponentDrill
T5C1.000
; #@! TA.AperFunction,Plated,PTH,ComponentDrill
T6C1.020
; #@! TA.AperFunction,Plated,PTH,ComponentDrill
T7C1.200
; #@! TA.AperFunction,Plated,PTH,ComponentDrill
T8C1.300
; #@! TA.AperFunction,Plated,PTH,ComponentDrill
T9C1.800
; #@! TA.AperFunction,Plated,PTH,ComponentDrill
T10C4.500
%
G90
G05
T1
X41.74Y-54.82
X41.74Y-57.36
X41.74Y-59.9
X41.74Y-62.44
X41.74Y-64.98
X41.74Y-67.52
X41.74Y-70.06
X41.74Y-72.6
X41.74Y-75.14
X41.74Y-77.68
X41.74Y-80.22
X41.74Y-82.76
X41.74Y-85.3
X41.74Y-87.84
X41.74Y-90.38
X44.28Y-54.82
X44.28Y-57.36
X44.28Y-72.6
X44.28Y-75.14
X44.28Y-77.68
X44.28Y-80.22
X44.28Y-82.76
X44.28Y-85.3
X44.28Y-87.84
X44.28Y-90.38
X46.82Y-52.28
X46.82Y-54.82
X46.82Y-72.6
X46.82Y-75.14
X46.82Y-77.68
X46.82Y-80.22
X46.82Y-82.76
X46.82Y-85.3
X46.82Y-87.84
X46.82Y-90.38
X46.82Y-92.92
X46.82Y-95.46
X49.36Y-52.28
X49.36Y-72.6
X49.36Y-75.14
X49.36Y-77.68
X49.36Y-80.22
X49.36Y-82.76
X49.36Y-85.3
X49.36Y-87.84
X49.36Y-92.92
X49.36Y-95.46
X51.9Y-52.28
X51.9Y-70.06
X51.9Y-72.6
X51.9Y-75.14
X51.9Y-77.68
X51.9Y-80.22
X51.9Y-82.76
X51.9Y-92.92
X51.9Y-95.46
X54.44Y-52.28
X54.44Y-67.52
X54.44Y-75.14
X54.44Y-77.68
X54.44Y-80.22
X54.44Y-92.92
X54.44Y-95.46
X54.45Y-61.4
X56.98Y-52.28
X56.98Y-54.82
X56.98Y-64.98
X56.98Y-67.52
X56.98Y-92.92
X56.98Y-95.46
X59.52Y-52.28
X59.52Y-67.52
X59.52Y-92.92
X59.52Y-95.46
X60.3Y-78.2
X62.06Y-67.52
X62.06Y-72.6
X62.06Y-80.22
X62.06Y-92.92
X62.06Y-95.46
X64.6Y-80.22
X64.6Y-92.92
X64.6Y-95.46
X65.568Y-73.9
X67.14Y-62.44
X67.14Y-75.14
X67.14Y-80.22
X67.14Y-95.46
X69.68Y-62.44
X72.22Y-59.9
X72.22Y-62.44
X74.76Y-59.9
X74.76Y-62.44
X76.5Y-78.7
X77.3Y-59.9
X77.3Y-70.06
X79.84Y-85.3
X80.53Y-51.9
X81.8Y-51.9
X82.249Y-91.465
X82.38Y-75.14
X82.38Y-85.3
X82.38Y-87.84
X82.815Y-92.03
X83.07Y-51.9
X83.38Y-92.596
X83.98Y-93.196
X84.92Y-75.14
X84.92Y-85.3
X84.92Y-87.84
X84.92Y-90.38
X85.8Y-64.6
X87.46Y-72.6
X87.46Y-80.22
X87.46Y-87.84
X87.46Y-90.38
X88.025Y-57.078
X89.295Y-57.078
X89.93Y-53.282
X90.0Y-80.22
X90.306Y-59.906
X90.6Y-57.1
X90.8Y-71.85
X90.8Y-73.85
X91.7Y-66.4
X92.54Y-64.98
X92.54Y-80.22
X95.08Y-72.6
X96.1Y-67.1
X97.62Y-59.9
X97.62Y-62.44
X97.9Y-67.8
X99.2Y-80.5
X100.16Y-62.44
X100.16Y-70.06
X100.16Y-90.38
X102.7Y-57.36
X102.7Y-59.9
X102.7Y-62.44
X102.7Y-70.06
X102.7Y-75.14
X102.7Y-77.68
X102.7Y-82.76
X102.7Y-85.3
X102.7Y-87.84
X105.24Y-57.36
X105.24Y-59.9
X105.24Y-62.44
X105.24Y-75.14
X105.24Y-77.68
X105.24Y-85.3
X105.24Y-87.84
X105.24Y-90.38
X105.8Y-71.7
X107.78Y-57.36
X107.78Y-59.9
X107.78Y-62.44
X107.78Y-75.14
X107.78Y-77.68
X107.78Y-85.3
X107.78Y-87.84
X107.78Y-90.38
X108.7Y-71.9
X110.32Y-57.36
X110.32Y-59.9
X110.32Y-75.14
X110.32Y-80.22
X112.86Y-57.36
X112.86Y-77.68
X112.86Y-80.22
X115.4Y-57.36
X115.4Y-59.9
X115.4Y-62.44
X115.4Y-80.22
X116.1Y-73.9
X117.1Y-66.4
X117.94Y-57.36
X117.94Y-59.9
X117.94Y-62.44
X117.94Y-80.22
X120.48Y-57.36
X120.48Y-59.9
X120.48Y-62.44
X120.48Y-85.3
X120.48Y-87.84
X120.48Y-90.38
X121.4Y-67.1
X123.02Y-62.44
X123.02Y-85.3
X123.02Y-87.84
X123.02Y-90.38
X123.3Y-67.8
X125.56Y-82.76
X125.56Y-85.3
X125.56Y-87.84
X125.56Y-90.38
X128.1Y-82.76
X128.1Y-85.3
X128.1Y-87.84
X128.1Y-90.38
X128.4Y-69.7
X128.5Y-55.5
X131.7Y-79.9
X134.3Y-76.0
X137.65Y-56.77
X139.4Y-88.65
X140.1Y-73.8
X140.8Y-57.36
X140.8Y-59.9
X140.8Y-62.44
X141.0Y-66.4
X143.34Y-62.44
X145.3Y-67.1
X145.88Y-62.44
X147.1Y-67.8
X148.2Y-65.6
X148.42Y-57.36
X148.42Y-59.9
X148.42Y-62.44
X150.96Y-62.44
X150.96Y-80.22
X150.96Y-87.84
X151.8Y-83.3
X152.6Y-68.7
X154.3Y-64.7
X155.2Y-66.334
X155.9Y-70.4
X156.04Y-52.28
X156.04Y-54.82
X156.04Y-57.36
X156.04Y-82.76
X158.58Y-52.28
X158.58Y-90.38
X161.12Y-52.28
X161.12Y-90.38
X163.66Y-54.82
X163.66Y-57.36
X163.66Y-59.9
X163.66Y-62.44
X163.66Y-70.06
X163.66Y-75.14
X163.66Y-77.68
X163.66Y-80.22
X163.66Y-82.76
X163.66Y-85.3
X163.66Y-87.84
X166.2Y-52.28
X166.2Y-54.82
X166.2Y-57.36
X166.2Y-59.9
X166.2Y-75.14
X166.2Y-77.68
X166.2Y-80.22
X166.2Y-82.76
X166.2Y-85.3
X166.2Y-87.84
X167.775Y-93.597
X168.74Y-54.82
X168.74Y-57.36
X168.74Y-75.14
X171.28Y-52.28
X171.28Y-95.46
X172.0Y-79.9
X173.82Y-92.92
X173.82Y-95.46
X176.36Y-52.28
X176.36Y-57.36
X176.36Y-59.9
X176.36Y-62.44
X176.36Y-64.98
X176.36Y-67.52
X176.36Y-70.06
X176.36Y-72.6
X176.36Y-75.14
X176.36Y-77.68
X176.36Y-80.22
X176.36Y-82.76
X176.36Y-85.3
X176.36Y-87.84
X176.36Y-90.38
X176.36Y-92.92
X176.36Y-95.46
X178.9Y-52.28
X178.9Y-54.82
X178.9Y-80.22
X178.9Y-82.76
X178.9Y-85.3
X178.9Y-87.84
X178.9Y-90.38
X178.9Y-92.92
X178.9Y-95.46
X181.44Y-52.28
X181.44Y-54.82
X181.44Y-80.22
X181.44Y-82.76
X181.44Y-85.3
X181.44Y-87.84
X181.44Y-90.38
X181.44Y-92.92
X181.44Y-95.46
X182.3Y-59.45
X183.98Y-54.82
X183.98Y-57.36
X183.98Y-59.9
X183.98Y-62.44
X183.98Y-80.22
X183.98Y-82.76
X183.98Y-85.3
X183.98Y-87.84
X183.98Y-90.38
X183.98Y-92.92
X183.98Y-95.46
X186.52Y-72.6
X186.52Y-75.14
X186.52Y-77.68
X186.52Y-80.22
X186.52Y-82.76
X186.52Y-85.3
X186.52Y-87.84
X186.52Y-90.38
X189.06Y-52.28
X189.06Y-54.82
X189.06Y-57.36
X189.06Y-59.9
X189.06Y-62.44
X189.06Y-64.98
X189.06Y-67.52
X189.06Y-70.06
X189.06Y-72.6
X189.06Y-75.14
X189.06Y-77.68
X189.06Y-80.22
X189.06Y-82.76
X189.06Y-85.3
X189.06Y-87.84
T2
X60.85Y-61.4
X75.5Y-77.1
X78.7Y-55.5
X126.9Y-69.5
X134.0Y-79.6
X137.65Y-52.96
T3
X151.96Y-77.0
X154.5Y-77.0
T4
X50.8Y-91.1
X53.3Y-91.1
X55.8Y-91.1
X58.3Y-91.1
X60.8Y-91.1
T5
X55.51Y-69.85
X55.51Y-82.55
X58.05Y-69.85
X58.05Y-82.55
X60.59Y-69.85
X60.59Y-82.55
X63.13Y-69.85
X63.13Y-82.55
X64.068Y-76.3
X65.67Y-69.85
X65.67Y-82.55
X68.21Y-69.85
X68.21Y-82.55
X69.068Y-76.3
X70.75Y-69.85
X70.75Y-82.55
X73.29Y-69.85
X73.29Y-72.39
X73.29Y-74.93
X73.29Y-82.55
X80.61Y-69.8
X80.61Y-82.5
X83.15Y-69.8
X83.15Y-82.5
X85.69Y-69.8
X85.69Y-82.5
X88.23Y-69.8
X88.23Y-82.5
X89.168Y-76.25
X90.77Y-69.8
X90.77Y-82.5
X93.31Y-69.8
X93.31Y-82.5
X94.168Y-76.25
X95.85Y-69.8
X95.85Y-82.5
X98.39Y-69.8
X98.39Y-72.34
X98.39Y-74.88
X98.39Y-82.5
X106.01Y-69.75
X106.01Y-82.45
X108.55Y-69.75
X108.55Y-82.45
X111.09Y-69.75
X111.09Y-82.45
X113.63Y-69.75
X113.63Y-82.45
X114.568Y-76.2
X116.17Y-69.75
X116.17Y-82.45
X118.71Y-69.75
X118.71Y-82.45
X119.568Y-76.2
X121.25Y-69.75
X121.25Y-82.45
X123.79Y-69.75
X123.79Y-72.29
X123.79Y-74.83
X123.79Y-82.45
X129.91Y-69.75
X129.91Y-82.45
X132.45Y-69.75
X132.45Y-82.45
X134.99Y-69.75
X134.99Y-82.45
X137.53Y-69.75
X137.53Y-82.45
X138.468Y-76.2
X140.07Y-69.75
X140.07Y-82.45
X142.61Y-69.75
X142.61Y-82.45
X143.468Y-76.2
X145.15Y-69.75
X145.15Y-82.45
X146.725Y-90.9
X147.69Y-69.75
X147.69Y-72.29
X147.69Y-74.83
X147.69Y-82.45
X149.265Y-90.9
X151.805Y-90.9
T6
X72.0Y-87.26
X72.0Y-90.26
X75.0Y-87.26
X75.0Y-90.26
X92.3Y-87.26
X92.3Y-90.26
X95.3Y-87.26
X95.3Y-90.26
X112.6Y-87.26
X112.6Y-90.26
X115.6Y-87.26
X115.6Y-90.26
X132.9Y-87.26
X132.9Y-90.26
X135.9Y-87.26
X135.9Y-90.26
X158.9Y-55.1
X158.9Y-58.1
X158.9Y-61.1
X158.9Y-64.1
X158.9Y-67.1
X158.9Y-70.1
X158.9Y-73.1
X158.9Y-76.1
X158.9Y-79.1
X158.9Y-82.1
X158.9Y-85.1
X158.9Y-88.1
X161.9Y-55.1
X161.9Y-58.1
X161.9Y-61.1
X161.9Y-64.1
X161.9Y-67.1
X161.9Y-70.1
X161.9Y-73.1
X161.9Y-76.1
X161.9Y-79.1
X161.9Y-82.1
X161.9Y-85.1
X161.9Y-88.1
X170.72Y-55.1
X170.72Y-58.1
X170.72Y-61.1
X170.72Y-64.1
X170.72Y-67.1
X170.72Y-70.1
X170.72Y-73.1
X170.72Y-76.1
X170.72Y-79.1
X170.72Y-82.1
X170.72Y-85.1
X170.72Y-88.1
X173.72Y-55.1
X173.72Y-58.1
X173.72Y-61.1
X173.72Y-64.1
X173.72Y-67.1
X173.72Y-70.1
X173.72Y-73.1
X173.72Y-76.1
X173.72Y-79.1
X173.72Y-82.1
X173.72Y-85.1
X173.72Y-88.1
T7
X111.9Y-54.187
X111.9Y-61.687
T8
X52.15Y-55.5
X74.65Y-55.5
T9
X100.2Y-53.3
X100.2Y-58.3
X144.5Y-54.3
X144.5Y-59.3
X151.8Y-54.3
X151.8Y-59.3
T10
X45.6Y-61.4
X45.6Y-68.6
X181.6Y-67.5
X181.6Y-74.7
M30
