%TF.GenerationSoftware,KiCad,Pcbnew,9.0.7*%
%TF.CreationDate,2026-03-04T11:56:38+01:00*%
%TF.ProjectId,power-pcb,706f7765-722d-4706-9362-2e6b69636164,v1.1*%
%TF.SameCoordinates,Original*%
%TF.FileFunction,Soldermask,Bot*%
%TF.FilePolarity,Negative*%
%FSLAX46Y46*%
G04 Gerber Fmt 4.6, Leading zero omitted, Abs format (unit mm)*
G04 Created by KiCad (PCBNEW 9.0.7) date 2026-03-04 11:56:38*
%MOMM*%
%LPD*%
G01*
G04 APERTURE LIST*
G04 Aperture macros list*
%AMRoundRect*
0 Rectangle with rounded corners*
0 $1 Rounding radius*
0 $2 $3 $4 $5 $6 $7 $8 $9 X,Y pos of 4 corners*
0 Add a 4 corners polygon primitive as box body*
4,1,4,$2,$3,$4,$5,$6,$7,$8,$9,$2,$3,0*
0 Add four circle primitives for the rounded corners*
1,1,$1+$1,$2,$3*
1,1,$1+$1,$4,$5*
1,1,$1+$1,$6,$7*
1,1,$1+$1,$8,$9*
0 Add four rect primitives between the rounded corners*
20,1,$1+$1,$2,$3,$4,$5,0*
20,1,$1+$1,$4,$5,$6,$7,0*
20,1,$1+$1,$6,$7,$8,$9,0*
20,1,$1+$1,$8,$9,$2,$3,0*%
%AMOutline4P*
0 Free polygon, 4 corners , with rotation*
0 The origin of the aperture is its center*
0 number of corners: always 4*
0 $1 to $8 corner X, Y*
0 $9 Rotation angle, in degrees counterclockwise*
0 create outline with 4 corners*
4,1,4,$1,$2,$3,$4,$5,$6,$7,$8,$1,$2,$9*%
G04 Aperture macros list end*
%ADD10C,3.200000*%
%ADD11C,1.200000*%
%ADD12RoundRect,0.250000X0.600000X0.725000X-0.600000X0.725000X-0.600000X-0.725000X0.600000X-0.725000X0*%
%ADD13O,1.700000X1.950000*%
%ADD14C,1.020000*%
%ADD15RoundRect,0.250001X0.499999X-0.499999X0.499999X0.499999X-0.499999X0.499999X-0.499999X-0.499999X0*%
%ADD16C,1.500000*%
%ADD17C,2.700000*%
%ADD18C,3.000000*%
%ADD19RoundRect,0.750000X0.750000X-0.750000X0.750000X0.750000X-0.750000X0.750000X-0.750000X-0.750000X0*%
%ADD20RoundRect,0.250001X-0.949999X0.949999X-0.949999X-0.949999X0.949999X-0.949999X0.949999X0.949999X0*%
%ADD21C,2.400000*%
%ADD22RoundRect,1.500000X-1.500000X1.500000X-1.500000X-1.500000X1.500000X-1.500000X1.500000X1.500000X0*%
%ADD23C,6.000000*%
%ADD24RoundRect,0.250001X-0.499999X-0.499999X0.499999X-0.499999X0.499999X0.499999X-0.499999X0.499999X0*%
%ADD25R,1.500000X2.300000*%
%ADD26O,1.500000X2.300000*%
%ADD27RoundRect,1.500000X1.500000X-1.500000X1.500000X1.500000X-1.500000X1.500000X-1.500000X-1.500000X0*%
%ADD28RoundRect,0.102000X0.754000X-0.754000X0.754000X0.754000X-0.754000X0.754000X-0.754000X-0.754000X0*%
%ADD29C,1.712000*%
%ADD30C,1.400000*%
%ADD31RoundRect,0.250001X-0.499999X0.499999X-0.499999X-0.499999X0.499999X-0.499999X0.499999X0.499999X0*%
%ADD32Outline4P,-2.150000X-1.800000X2.150000X-0.800000X2.150000X0.800000X-2.150000X1.800000X180.000000*%
%ADD33Outline4P,-2.150000X-1.800000X2.150000X-0.800000X2.150000X0.800000X-2.150000X1.800000X0.000000*%
%ADD34RoundRect,0.250000X0.337500X0.475000X-0.337500X0.475000X-0.337500X-0.475000X0.337500X-0.475000X0*%
%ADD35RoundRect,0.250000X0.750000X0.750000X-0.750000X0.750000X-0.750000X-0.750000X0.750000X-0.750000X0*%
%ADD36C,2.000000*%
%ADD37RoundRect,0.250000X0.450000X-0.350000X0.450000X0.350000X-0.450000X0.350000X-0.450000X-0.350000X0*%
%ADD38RoundRect,0.250000X0.350000X0.450000X-0.350000X0.450000X-0.350000X-0.450000X0.350000X-0.450000X0*%
%ADD39RoundRect,0.250000X-0.350000X-0.450000X0.350000X-0.450000X0.350000X0.450000X-0.350000X0.450000X0*%
%ADD40RoundRect,0.250000X0.475000X-0.337500X0.475000X0.337500X-0.475000X0.337500X-0.475000X-0.337500X0*%
G04 APERTURE END LIST*
D10*
%TO.C,H1*%
X43700000Y-52300000D03*
%TD*%
D11*
%TO.C,J8*%
X62400000Y-89100000D03*
D12*
X60800000Y-91100000D03*
D13*
X58300000Y-91100000D03*
X55800000Y-91100000D03*
X53300000Y-91100000D03*
X50800000Y-91100000D03*
%TD*%
D10*
%TO.C,H4*%
X43500000Y-93400000D03*
%TD*%
D14*
%TO.C,J4*%
X162840000Y-91100000D03*
X162840000Y-52100000D03*
D15*
X158900000Y-88100000D03*
D16*
X158900000Y-85100000D03*
X158900000Y-82100000D03*
X158900000Y-79100000D03*
X158900000Y-76100000D03*
X158900000Y-73100000D03*
X158900000Y-70100000D03*
X158900000Y-67100000D03*
X158900000Y-64100000D03*
X158900000Y-61100000D03*
X158900000Y-58100000D03*
X158900000Y-55100000D03*
X161900000Y-88100000D03*
X161900000Y-85100000D03*
X161900000Y-82100000D03*
X161900000Y-79100000D03*
X161900000Y-76100000D03*
X161900000Y-73100000D03*
X161900000Y-70100000D03*
X161900000Y-67100000D03*
X161900000Y-64100000D03*
X161900000Y-61100000D03*
X161900000Y-58100000D03*
X161900000Y-55100000D03*
%TD*%
D17*
%TO.C,F1*%
X63400000Y-55500000D03*
D18*
X52150000Y-55500000D03*
X74650000Y-55500000D03*
%TD*%
D19*
%TO.C,J6*%
X151800000Y-59300000D03*
D18*
X151800000Y-54300000D03*
%TD*%
D20*
%TO.C,C1*%
X111900000Y-54187246D03*
D21*
X111900000Y-61687246D03*
%TD*%
D19*
%TO.C,J5*%
X144500000Y-59300000D03*
D18*
X144500000Y-54300000D03*
%TD*%
D22*
%TO.C,J7*%
X181600000Y-67500000D03*
D23*
X181600000Y-74700000D03*
%TD*%
D14*
%TO.C,J10*%
X89300000Y-91200000D03*
X98300000Y-91200000D03*
D24*
X92300000Y-87260000D03*
D16*
X95300000Y-87260000D03*
X92300000Y-90260000D03*
X95300000Y-90260000D03*
%TD*%
D10*
%TO.C,H3*%
X186600000Y-93300000D03*
%TD*%
D25*
%TO.C,U3*%
X146725000Y-90900000D03*
D26*
X149265000Y-90900000D03*
X151805000Y-90900000D03*
%TD*%
D14*
%TO.C,J12*%
X109600000Y-91200000D03*
X118600000Y-91200000D03*
D24*
X112600000Y-87260000D03*
D16*
X115600000Y-87260000D03*
X112600000Y-90260000D03*
X115600000Y-90260000D03*
%TD*%
D14*
%TO.C,J11*%
X129900000Y-91200000D03*
X138900000Y-91200000D03*
D24*
X132900000Y-87260000D03*
D16*
X135900000Y-87260000D03*
X132900000Y-90260000D03*
X135900000Y-90260000D03*
%TD*%
D27*
%TO.C,J1*%
X45600000Y-68600000D03*
D23*
X45600000Y-61400000D03*
%TD*%
D28*
%TO.C,U4*%
X73290000Y-69850000D03*
D29*
X70750000Y-69850000D03*
X68210000Y-69850000D03*
X65670000Y-69850000D03*
X63130000Y-69850000D03*
X60590000Y-69850000D03*
X58050000Y-69850000D03*
X55510000Y-69850000D03*
X73290000Y-82550000D03*
X70750000Y-82550000D03*
X68210000Y-82550000D03*
X65670000Y-82550000D03*
X63130000Y-82550000D03*
X60590000Y-82550000D03*
X58050000Y-82550000D03*
X55510000Y-82550000D03*
X73290000Y-72390000D03*
X73290000Y-74930000D03*
%TD*%
D14*
%TO.C,J9*%
X69000000Y-91200000D03*
X78000000Y-91200000D03*
D24*
X72000000Y-87260000D03*
D16*
X75000000Y-87260000D03*
X72000000Y-90260000D03*
X75000000Y-90260000D03*
%TD*%
D28*
%TO.C,U5*%
X98390000Y-69800000D03*
D29*
X95850000Y-69800000D03*
X93310000Y-69800000D03*
X90770000Y-69800000D03*
X88230000Y-69800000D03*
X85690000Y-69800000D03*
X83150000Y-69800000D03*
X80610000Y-69800000D03*
X98390000Y-82500000D03*
X95850000Y-82500000D03*
X93310000Y-82500000D03*
X90770000Y-82500000D03*
X88230000Y-82500000D03*
X85690000Y-82500000D03*
X83150000Y-82500000D03*
X80610000Y-82500000D03*
X98390000Y-72340000D03*
X98390000Y-74880000D03*
%TD*%
D28*
%TO.C,U6*%
X147690000Y-69750000D03*
D29*
X145150000Y-69750000D03*
X142610000Y-69750000D03*
X140070000Y-69750000D03*
X137530000Y-69750000D03*
X134990000Y-69750000D03*
X132450000Y-69750000D03*
X129910000Y-69750000D03*
X147690000Y-82450000D03*
X145150000Y-82450000D03*
X142610000Y-82450000D03*
X140070000Y-82450000D03*
X137530000Y-82450000D03*
X134990000Y-82450000D03*
X132450000Y-82450000D03*
X129910000Y-82450000D03*
X147690000Y-72290000D03*
X147690000Y-74830000D03*
%TD*%
D19*
%TO.C,J2*%
X100200000Y-58300000D03*
D18*
X100200000Y-53300000D03*
%TD*%
D28*
%TO.C,U7*%
X123790000Y-69750000D03*
D29*
X121250000Y-69750000D03*
X118710000Y-69750000D03*
X116170000Y-69750000D03*
X113630000Y-69750000D03*
X111090000Y-69750000D03*
X108550000Y-69750000D03*
X106010000Y-69750000D03*
X123790000Y-82450000D03*
X121250000Y-82450000D03*
X118710000Y-82450000D03*
X116170000Y-82450000D03*
X113630000Y-82450000D03*
X111090000Y-82450000D03*
X108550000Y-82450000D03*
X106010000Y-82450000D03*
X123790000Y-72290000D03*
X123790000Y-74830000D03*
%TD*%
D30*
%TO.C,JP1*%
X154500000Y-77000000D03*
X151960000Y-77000000D03*
%TD*%
D14*
%TO.C,J3*%
X169780000Y-52100000D03*
X169780000Y-91100000D03*
D31*
X173720000Y-55100000D03*
D16*
X173720000Y-58100000D03*
X173720000Y-61100000D03*
X173720000Y-64100000D03*
X173720000Y-67100000D03*
X173720000Y-70100000D03*
X173720000Y-73100000D03*
X173720000Y-76100000D03*
X173720000Y-79100000D03*
X173720000Y-82100000D03*
X173720000Y-85100000D03*
X173720000Y-88100000D03*
X170720000Y-55100000D03*
X170720000Y-58100000D03*
X170720000Y-61100000D03*
X170720000Y-64100000D03*
X170720000Y-67100000D03*
X170720000Y-70100000D03*
X170720000Y-73100000D03*
X170720000Y-76100000D03*
X170720000Y-79100000D03*
X170720000Y-82100000D03*
X170720000Y-85100000D03*
X170720000Y-88100000D03*
%TD*%
D10*
%TO.C,H2*%
X186600000Y-52300000D03*
%TD*%
D32*
%TO.C,D1*%
X60850000Y-61400000D03*
D33*
X54450000Y-61400000D03*
%TD*%
D34*
%TO.C,C10*%
X83037500Y-80500000D03*
X80962500Y-80500000D03*
%TD*%
D35*
%TO.C,C5*%
X69067677Y-76300000D03*
D36*
X64067677Y-76300000D03*
%TD*%
D34*
%TO.C,C7*%
X58037500Y-80600000D03*
X55962500Y-80600000D03*
%TD*%
D37*
%TO.C,R7*%
X60800000Y-88800000D03*
X60800000Y-86800000D03*
%TD*%
D38*
%TO.C,R18*%
X84700000Y-72000000D03*
X82700000Y-72000000D03*
%TD*%
D35*
%TO.C,C11*%
X143467677Y-76200000D03*
D36*
X138467677Y-76200000D03*
%TD*%
D37*
%TO.C,R10*%
X55900000Y-89000000D03*
X55900000Y-87000000D03*
%TD*%
D38*
%TO.C,R12*%
X182250000Y-59600000D03*
X180250000Y-59600000D03*
%TD*%
D37*
%TO.C,R11*%
X53300000Y-87100000D03*
X53300000Y-85100000D03*
%TD*%
D39*
%TO.C,R19*%
X78400000Y-71900000D03*
X80400000Y-71900000D03*
%TD*%
D40*
%TO.C,C4*%
X142200000Y-89375000D03*
X142200000Y-87300000D03*
%TD*%
%TO.C,C3*%
X146725000Y-88637500D03*
X146725000Y-86562500D03*
%TD*%
D34*
%TO.C,C16*%
X108537500Y-80400000D03*
X106462500Y-80400000D03*
%TD*%
D37*
%TO.C,R9*%
X58400000Y-87400000D03*
X58400000Y-85400000D03*
%TD*%
D35*
%TO.C,C14*%
X119567677Y-76200000D03*
D36*
X114567677Y-76200000D03*
%TD*%
D35*
%TO.C,C8*%
X94167677Y-76250000D03*
D36*
X89167677Y-76250000D03*
%TD*%
D34*
%TO.C,C13*%
X132200000Y-84800000D03*
X130125000Y-84800000D03*
%TD*%
M02*
