%TF.GenerationSoftware,KiCad,Pcbnew,9.0.7*%
%TF.CreationDate,2026-03-04T11:56:38+01:00*%
%TF.ProjectId,power-pcb,706f7765-722d-4706-9362-2e6b69636164,v1.1*%
%TF.SameCoordinates,Original*%
%TF.FileFunction,Legend,Bot*%
%TF.FilePolarity,Positive*%
%FSLAX46Y46*%
G04 Gerber Fmt 4.6, Leading zero omitted, Abs format (unit mm)*
G04 Created by KiCad (PCBNEW 9.0.7) date 2026-03-04 11:56:38*
%MOMM*%
%LPD*%
G01*
G04 APERTURE LIST*
%ADD10C,0.150000*%
%ADD11C,0.120000*%
G04 APERTURE END LIST*
D10*
X58388094Y-57754819D02*
X58388094Y-56754819D01*
X58388094Y-56754819D02*
X58149999Y-56754819D01*
X58149999Y-56754819D02*
X58007142Y-56802438D01*
X58007142Y-56802438D02*
X57911904Y-56897676D01*
X57911904Y-56897676D02*
X57864285Y-56992914D01*
X57864285Y-56992914D02*
X57816666Y-57183390D01*
X57816666Y-57183390D02*
X57816666Y-57326247D01*
X57816666Y-57326247D02*
X57864285Y-57516723D01*
X57864285Y-57516723D02*
X57911904Y-57611961D01*
X57911904Y-57611961D02*
X58007142Y-57707200D01*
X58007142Y-57707200D02*
X58149999Y-57754819D01*
X58149999Y-57754819D02*
X58388094Y-57754819D01*
X56864285Y-57754819D02*
X57435713Y-57754819D01*
X57149999Y-57754819D02*
X57149999Y-56754819D01*
X57149999Y-56754819D02*
X57245237Y-56897676D01*
X57245237Y-56897676D02*
X57340475Y-56992914D01*
X57340475Y-56992914D02*
X57435713Y-57040533D01*
X82642857Y-79179580D02*
X82690476Y-79227200D01*
X82690476Y-79227200D02*
X82833333Y-79274819D01*
X82833333Y-79274819D02*
X82928571Y-79274819D01*
X82928571Y-79274819D02*
X83071428Y-79227200D01*
X83071428Y-79227200D02*
X83166666Y-79131961D01*
X83166666Y-79131961D02*
X83214285Y-79036723D01*
X83214285Y-79036723D02*
X83261904Y-78846247D01*
X83261904Y-78846247D02*
X83261904Y-78703390D01*
X83261904Y-78703390D02*
X83214285Y-78512914D01*
X83214285Y-78512914D02*
X83166666Y-78417676D01*
X83166666Y-78417676D02*
X83071428Y-78322438D01*
X83071428Y-78322438D02*
X82928571Y-78274819D01*
X82928571Y-78274819D02*
X82833333Y-78274819D01*
X82833333Y-78274819D02*
X82690476Y-78322438D01*
X82690476Y-78322438D02*
X82642857Y-78370057D01*
X81690476Y-79274819D02*
X82261904Y-79274819D01*
X81976190Y-79274819D02*
X81976190Y-78274819D01*
X81976190Y-78274819D02*
X82071428Y-78417676D01*
X82071428Y-78417676D02*
X82166666Y-78512914D01*
X82166666Y-78512914D02*
X82261904Y-78560533D01*
X81071428Y-78274819D02*
X80976190Y-78274819D01*
X80976190Y-78274819D02*
X80880952Y-78322438D01*
X80880952Y-78322438D02*
X80833333Y-78370057D01*
X80833333Y-78370057D02*
X80785714Y-78465295D01*
X80785714Y-78465295D02*
X80738095Y-78655771D01*
X80738095Y-78655771D02*
X80738095Y-78893866D01*
X80738095Y-78893866D02*
X80785714Y-79084342D01*
X80785714Y-79084342D02*
X80833333Y-79179580D01*
X80833333Y-79179580D02*
X80880952Y-79227200D01*
X80880952Y-79227200D02*
X80976190Y-79274819D01*
X80976190Y-79274819D02*
X81071428Y-79274819D01*
X81071428Y-79274819D02*
X81166666Y-79227200D01*
X81166666Y-79227200D02*
X81214285Y-79179580D01*
X81214285Y-79179580D02*
X81261904Y-79084342D01*
X81261904Y-79084342D02*
X81309523Y-78893866D01*
X81309523Y-78893866D02*
X81309523Y-78655771D01*
X81309523Y-78655771D02*
X81261904Y-78465295D01*
X81261904Y-78465295D02*
X81214285Y-78370057D01*
X81214285Y-78370057D02*
X81166666Y-78322438D01*
X81166666Y-78322438D02*
X81071428Y-78274819D01*
X62566666Y-72159580D02*
X62614285Y-72207200D01*
X62614285Y-72207200D02*
X62757142Y-72254819D01*
X62757142Y-72254819D02*
X62852380Y-72254819D01*
X62852380Y-72254819D02*
X62995237Y-72207200D01*
X62995237Y-72207200D02*
X63090475Y-72111961D01*
X63090475Y-72111961D02*
X63138094Y-72016723D01*
X63138094Y-72016723D02*
X63185713Y-71826247D01*
X63185713Y-71826247D02*
X63185713Y-71683390D01*
X63185713Y-71683390D02*
X63138094Y-71492914D01*
X63138094Y-71492914D02*
X63090475Y-71397676D01*
X63090475Y-71397676D02*
X62995237Y-71302438D01*
X62995237Y-71302438D02*
X62852380Y-71254819D01*
X62852380Y-71254819D02*
X62757142Y-71254819D01*
X62757142Y-71254819D02*
X62614285Y-71302438D01*
X62614285Y-71302438D02*
X62566666Y-71350057D01*
X61661904Y-71254819D02*
X62138094Y-71254819D01*
X62138094Y-71254819D02*
X62185713Y-71731009D01*
X62185713Y-71731009D02*
X62138094Y-71683390D01*
X62138094Y-71683390D02*
X62042856Y-71635771D01*
X62042856Y-71635771D02*
X61804761Y-71635771D01*
X61804761Y-71635771D02*
X61709523Y-71683390D01*
X61709523Y-71683390D02*
X61661904Y-71731009D01*
X61661904Y-71731009D02*
X61614285Y-71826247D01*
X61614285Y-71826247D02*
X61614285Y-72064342D01*
X61614285Y-72064342D02*
X61661904Y-72159580D01*
X61661904Y-72159580D02*
X61709523Y-72207200D01*
X61709523Y-72207200D02*
X61804761Y-72254819D01*
X61804761Y-72254819D02*
X62042856Y-72254819D01*
X62042856Y-72254819D02*
X62138094Y-72207200D01*
X62138094Y-72207200D02*
X62185713Y-72159580D01*
X57166666Y-79279580D02*
X57214285Y-79327200D01*
X57214285Y-79327200D02*
X57357142Y-79374819D01*
X57357142Y-79374819D02*
X57452380Y-79374819D01*
X57452380Y-79374819D02*
X57595237Y-79327200D01*
X57595237Y-79327200D02*
X57690475Y-79231961D01*
X57690475Y-79231961D02*
X57738094Y-79136723D01*
X57738094Y-79136723D02*
X57785713Y-78946247D01*
X57785713Y-78946247D02*
X57785713Y-78803390D01*
X57785713Y-78803390D02*
X57738094Y-78612914D01*
X57738094Y-78612914D02*
X57690475Y-78517676D01*
X57690475Y-78517676D02*
X57595237Y-78422438D01*
X57595237Y-78422438D02*
X57452380Y-78374819D01*
X57452380Y-78374819D02*
X57357142Y-78374819D01*
X57357142Y-78374819D02*
X57214285Y-78422438D01*
X57214285Y-78422438D02*
X57166666Y-78470057D01*
X56833332Y-78374819D02*
X56166666Y-78374819D01*
X56166666Y-78374819D02*
X56595237Y-79374819D01*
X60866666Y-85654819D02*
X61199999Y-85178628D01*
X61438094Y-85654819D02*
X61438094Y-84654819D01*
X61438094Y-84654819D02*
X61057142Y-84654819D01*
X61057142Y-84654819D02*
X60961904Y-84702438D01*
X60961904Y-84702438D02*
X60914285Y-84750057D01*
X60914285Y-84750057D02*
X60866666Y-84845295D01*
X60866666Y-84845295D02*
X60866666Y-84988152D01*
X60866666Y-84988152D02*
X60914285Y-85083390D01*
X60914285Y-85083390D02*
X60961904Y-85131009D01*
X60961904Y-85131009D02*
X61057142Y-85178628D01*
X61057142Y-85178628D02*
X61438094Y-85178628D01*
X60533332Y-84654819D02*
X59866666Y-84654819D01*
X59866666Y-84654819D02*
X60295237Y-85654819D01*
X83742857Y-74754819D02*
X84076190Y-74278628D01*
X84314285Y-74754819D02*
X84314285Y-73754819D01*
X84314285Y-73754819D02*
X83933333Y-73754819D01*
X83933333Y-73754819D02*
X83838095Y-73802438D01*
X83838095Y-73802438D02*
X83790476Y-73850057D01*
X83790476Y-73850057D02*
X83742857Y-73945295D01*
X83742857Y-73945295D02*
X83742857Y-74088152D01*
X83742857Y-74088152D02*
X83790476Y-74183390D01*
X83790476Y-74183390D02*
X83838095Y-74231009D01*
X83838095Y-74231009D02*
X83933333Y-74278628D01*
X83933333Y-74278628D02*
X84314285Y-74278628D01*
X82790476Y-74754819D02*
X83361904Y-74754819D01*
X83076190Y-74754819D02*
X83076190Y-73754819D01*
X83076190Y-73754819D02*
X83171428Y-73897676D01*
X83171428Y-73897676D02*
X83266666Y-73992914D01*
X83266666Y-73992914D02*
X83361904Y-74040533D01*
X82219047Y-74183390D02*
X82314285Y-74135771D01*
X82314285Y-74135771D02*
X82361904Y-74088152D01*
X82361904Y-74088152D02*
X82409523Y-73992914D01*
X82409523Y-73992914D02*
X82409523Y-73945295D01*
X82409523Y-73945295D02*
X82361904Y-73850057D01*
X82361904Y-73850057D02*
X82314285Y-73802438D01*
X82314285Y-73802438D02*
X82219047Y-73754819D01*
X82219047Y-73754819D02*
X82028571Y-73754819D01*
X82028571Y-73754819D02*
X81933333Y-73802438D01*
X81933333Y-73802438D02*
X81885714Y-73850057D01*
X81885714Y-73850057D02*
X81838095Y-73945295D01*
X81838095Y-73945295D02*
X81838095Y-73992914D01*
X81838095Y-73992914D02*
X81885714Y-74088152D01*
X81885714Y-74088152D02*
X81933333Y-74135771D01*
X81933333Y-74135771D02*
X82028571Y-74183390D01*
X82028571Y-74183390D02*
X82219047Y-74183390D01*
X82219047Y-74183390D02*
X82314285Y-74231009D01*
X82314285Y-74231009D02*
X82361904Y-74278628D01*
X82361904Y-74278628D02*
X82409523Y-74373866D01*
X82409523Y-74373866D02*
X82409523Y-74564342D01*
X82409523Y-74564342D02*
X82361904Y-74659580D01*
X82361904Y-74659580D02*
X82314285Y-74707200D01*
X82314285Y-74707200D02*
X82219047Y-74754819D01*
X82219047Y-74754819D02*
X82028571Y-74754819D01*
X82028571Y-74754819D02*
X81933333Y-74707200D01*
X81933333Y-74707200D02*
X81885714Y-74659580D01*
X81885714Y-74659580D02*
X81838095Y-74564342D01*
X81838095Y-74564342D02*
X81838095Y-74373866D01*
X81838095Y-74373866D02*
X81885714Y-74278628D01*
X81885714Y-74278628D02*
X81933333Y-74231009D01*
X81933333Y-74231009D02*
X82028571Y-74183390D01*
X137142857Y-72109580D02*
X137190476Y-72157200D01*
X137190476Y-72157200D02*
X137333333Y-72204819D01*
X137333333Y-72204819D02*
X137428571Y-72204819D01*
X137428571Y-72204819D02*
X137571428Y-72157200D01*
X137571428Y-72157200D02*
X137666666Y-72061961D01*
X137666666Y-72061961D02*
X137714285Y-71966723D01*
X137714285Y-71966723D02*
X137761904Y-71776247D01*
X137761904Y-71776247D02*
X137761904Y-71633390D01*
X137761904Y-71633390D02*
X137714285Y-71442914D01*
X137714285Y-71442914D02*
X137666666Y-71347676D01*
X137666666Y-71347676D02*
X137571428Y-71252438D01*
X137571428Y-71252438D02*
X137428571Y-71204819D01*
X137428571Y-71204819D02*
X137333333Y-71204819D01*
X137333333Y-71204819D02*
X137190476Y-71252438D01*
X137190476Y-71252438D02*
X137142857Y-71300057D01*
X136190476Y-72204819D02*
X136761904Y-72204819D01*
X136476190Y-72204819D02*
X136476190Y-71204819D01*
X136476190Y-71204819D02*
X136571428Y-71347676D01*
X136571428Y-71347676D02*
X136666666Y-71442914D01*
X136666666Y-71442914D02*
X136761904Y-71490533D01*
X135238095Y-72204819D02*
X135809523Y-72204819D01*
X135523809Y-72204819D02*
X135523809Y-71204819D01*
X135523809Y-71204819D02*
X135619047Y-71347676D01*
X135619047Y-71347676D02*
X135714285Y-71442914D01*
X135714285Y-71442914D02*
X135809523Y-71490533D01*
X56642857Y-85854819D02*
X56976190Y-85378628D01*
X57214285Y-85854819D02*
X57214285Y-84854819D01*
X57214285Y-84854819D02*
X56833333Y-84854819D01*
X56833333Y-84854819D02*
X56738095Y-84902438D01*
X56738095Y-84902438D02*
X56690476Y-84950057D01*
X56690476Y-84950057D02*
X56642857Y-85045295D01*
X56642857Y-85045295D02*
X56642857Y-85188152D01*
X56642857Y-85188152D02*
X56690476Y-85283390D01*
X56690476Y-85283390D02*
X56738095Y-85331009D01*
X56738095Y-85331009D02*
X56833333Y-85378628D01*
X56833333Y-85378628D02*
X57214285Y-85378628D01*
X55690476Y-85854819D02*
X56261904Y-85854819D01*
X55976190Y-85854819D02*
X55976190Y-84854819D01*
X55976190Y-84854819D02*
X56071428Y-84997676D01*
X56071428Y-84997676D02*
X56166666Y-85092914D01*
X56166666Y-85092914D02*
X56261904Y-85140533D01*
X55071428Y-84854819D02*
X54976190Y-84854819D01*
X54976190Y-84854819D02*
X54880952Y-84902438D01*
X54880952Y-84902438D02*
X54833333Y-84950057D01*
X54833333Y-84950057D02*
X54785714Y-85045295D01*
X54785714Y-85045295D02*
X54738095Y-85235771D01*
X54738095Y-85235771D02*
X54738095Y-85473866D01*
X54738095Y-85473866D02*
X54785714Y-85664342D01*
X54785714Y-85664342D02*
X54833333Y-85759580D01*
X54833333Y-85759580D02*
X54880952Y-85807200D01*
X54880952Y-85807200D02*
X54976190Y-85854819D01*
X54976190Y-85854819D02*
X55071428Y-85854819D01*
X55071428Y-85854819D02*
X55166666Y-85807200D01*
X55166666Y-85807200D02*
X55214285Y-85759580D01*
X55214285Y-85759580D02*
X55261904Y-85664342D01*
X55261904Y-85664342D02*
X55309523Y-85473866D01*
X55309523Y-85473866D02*
X55309523Y-85235771D01*
X55309523Y-85235771D02*
X55261904Y-85045295D01*
X55261904Y-85045295D02*
X55214285Y-84950057D01*
X55214285Y-84950057D02*
X55166666Y-84902438D01*
X55166666Y-84902438D02*
X55071428Y-84854819D01*
X181892857Y-58404819D02*
X182226190Y-57928628D01*
X182464285Y-58404819D02*
X182464285Y-57404819D01*
X182464285Y-57404819D02*
X182083333Y-57404819D01*
X182083333Y-57404819D02*
X181988095Y-57452438D01*
X181988095Y-57452438D02*
X181940476Y-57500057D01*
X181940476Y-57500057D02*
X181892857Y-57595295D01*
X181892857Y-57595295D02*
X181892857Y-57738152D01*
X181892857Y-57738152D02*
X181940476Y-57833390D01*
X181940476Y-57833390D02*
X181988095Y-57881009D01*
X181988095Y-57881009D02*
X182083333Y-57928628D01*
X182083333Y-57928628D02*
X182464285Y-57928628D01*
X180940476Y-58404819D02*
X181511904Y-58404819D01*
X181226190Y-58404819D02*
X181226190Y-57404819D01*
X181226190Y-57404819D02*
X181321428Y-57547676D01*
X181321428Y-57547676D02*
X181416666Y-57642914D01*
X181416666Y-57642914D02*
X181511904Y-57690533D01*
X180559523Y-57500057D02*
X180511904Y-57452438D01*
X180511904Y-57452438D02*
X180416666Y-57404819D01*
X180416666Y-57404819D02*
X180178571Y-57404819D01*
X180178571Y-57404819D02*
X180083333Y-57452438D01*
X180083333Y-57452438D02*
X180035714Y-57500057D01*
X180035714Y-57500057D02*
X179988095Y-57595295D01*
X179988095Y-57595295D02*
X179988095Y-57690533D01*
X179988095Y-57690533D02*
X180035714Y-57833390D01*
X180035714Y-57833390D02*
X180607142Y-58404819D01*
X180607142Y-58404819D02*
X179988095Y-58404819D01*
X53942857Y-89254819D02*
X54276190Y-88778628D01*
X54514285Y-89254819D02*
X54514285Y-88254819D01*
X54514285Y-88254819D02*
X54133333Y-88254819D01*
X54133333Y-88254819D02*
X54038095Y-88302438D01*
X54038095Y-88302438D02*
X53990476Y-88350057D01*
X53990476Y-88350057D02*
X53942857Y-88445295D01*
X53942857Y-88445295D02*
X53942857Y-88588152D01*
X53942857Y-88588152D02*
X53990476Y-88683390D01*
X53990476Y-88683390D02*
X54038095Y-88731009D01*
X54038095Y-88731009D02*
X54133333Y-88778628D01*
X54133333Y-88778628D02*
X54514285Y-88778628D01*
X52990476Y-89254819D02*
X53561904Y-89254819D01*
X53276190Y-89254819D02*
X53276190Y-88254819D01*
X53276190Y-88254819D02*
X53371428Y-88397676D01*
X53371428Y-88397676D02*
X53466666Y-88492914D01*
X53466666Y-88492914D02*
X53561904Y-88540533D01*
X52038095Y-89254819D02*
X52609523Y-89254819D01*
X52323809Y-89254819D02*
X52323809Y-88254819D01*
X52323809Y-88254819D02*
X52419047Y-88397676D01*
X52419047Y-88397676D02*
X52514285Y-88492914D01*
X52514285Y-88492914D02*
X52609523Y-88540533D01*
X77542857Y-70354819D02*
X77876190Y-69878628D01*
X78114285Y-70354819D02*
X78114285Y-69354819D01*
X78114285Y-69354819D02*
X77733333Y-69354819D01*
X77733333Y-69354819D02*
X77638095Y-69402438D01*
X77638095Y-69402438D02*
X77590476Y-69450057D01*
X77590476Y-69450057D02*
X77542857Y-69545295D01*
X77542857Y-69545295D02*
X77542857Y-69688152D01*
X77542857Y-69688152D02*
X77590476Y-69783390D01*
X77590476Y-69783390D02*
X77638095Y-69831009D01*
X77638095Y-69831009D02*
X77733333Y-69878628D01*
X77733333Y-69878628D02*
X78114285Y-69878628D01*
X76590476Y-70354819D02*
X77161904Y-70354819D01*
X76876190Y-70354819D02*
X76876190Y-69354819D01*
X76876190Y-69354819D02*
X76971428Y-69497676D01*
X76971428Y-69497676D02*
X77066666Y-69592914D01*
X77066666Y-69592914D02*
X77161904Y-69640533D01*
X76114285Y-70354819D02*
X75923809Y-70354819D01*
X75923809Y-70354819D02*
X75828571Y-70307200D01*
X75828571Y-70307200D02*
X75780952Y-70259580D01*
X75780952Y-70259580D02*
X75685714Y-70116723D01*
X75685714Y-70116723D02*
X75638095Y-69926247D01*
X75638095Y-69926247D02*
X75638095Y-69545295D01*
X75638095Y-69545295D02*
X75685714Y-69450057D01*
X75685714Y-69450057D02*
X75733333Y-69402438D01*
X75733333Y-69402438D02*
X75828571Y-69354819D01*
X75828571Y-69354819D02*
X76019047Y-69354819D01*
X76019047Y-69354819D02*
X76114285Y-69402438D01*
X76114285Y-69402438D02*
X76161904Y-69450057D01*
X76161904Y-69450057D02*
X76209523Y-69545295D01*
X76209523Y-69545295D02*
X76209523Y-69783390D01*
X76209523Y-69783390D02*
X76161904Y-69878628D01*
X76161904Y-69878628D02*
X76114285Y-69926247D01*
X76114285Y-69926247D02*
X76019047Y-69973866D01*
X76019047Y-69973866D02*
X75828571Y-69973866D01*
X75828571Y-69973866D02*
X75733333Y-69926247D01*
X75733333Y-69926247D02*
X75685714Y-69878628D01*
X75685714Y-69878628D02*
X75638095Y-69783390D01*
X142466666Y-86059580D02*
X142514285Y-86107200D01*
X142514285Y-86107200D02*
X142657142Y-86154819D01*
X142657142Y-86154819D02*
X142752380Y-86154819D01*
X142752380Y-86154819D02*
X142895237Y-86107200D01*
X142895237Y-86107200D02*
X142990475Y-86011961D01*
X142990475Y-86011961D02*
X143038094Y-85916723D01*
X143038094Y-85916723D02*
X143085713Y-85726247D01*
X143085713Y-85726247D02*
X143085713Y-85583390D01*
X143085713Y-85583390D02*
X143038094Y-85392914D01*
X143038094Y-85392914D02*
X142990475Y-85297676D01*
X142990475Y-85297676D02*
X142895237Y-85202438D01*
X142895237Y-85202438D02*
X142752380Y-85154819D01*
X142752380Y-85154819D02*
X142657142Y-85154819D01*
X142657142Y-85154819D02*
X142514285Y-85202438D01*
X142514285Y-85202438D02*
X142466666Y-85250057D01*
X141609523Y-85488152D02*
X141609523Y-86154819D01*
X141847618Y-85107200D02*
X142085713Y-85821485D01*
X142085713Y-85821485D02*
X141466666Y-85821485D01*
X144766666Y-88159580D02*
X144814285Y-88207200D01*
X144814285Y-88207200D02*
X144957142Y-88254819D01*
X144957142Y-88254819D02*
X145052380Y-88254819D01*
X145052380Y-88254819D02*
X145195237Y-88207200D01*
X145195237Y-88207200D02*
X145290475Y-88111961D01*
X145290475Y-88111961D02*
X145338094Y-88016723D01*
X145338094Y-88016723D02*
X145385713Y-87826247D01*
X145385713Y-87826247D02*
X145385713Y-87683390D01*
X145385713Y-87683390D02*
X145338094Y-87492914D01*
X145338094Y-87492914D02*
X145290475Y-87397676D01*
X145290475Y-87397676D02*
X145195237Y-87302438D01*
X145195237Y-87302438D02*
X145052380Y-87254819D01*
X145052380Y-87254819D02*
X144957142Y-87254819D01*
X144957142Y-87254819D02*
X144814285Y-87302438D01*
X144814285Y-87302438D02*
X144766666Y-87350057D01*
X144433332Y-87254819D02*
X143814285Y-87254819D01*
X143814285Y-87254819D02*
X144147618Y-87635771D01*
X144147618Y-87635771D02*
X144004761Y-87635771D01*
X144004761Y-87635771D02*
X143909523Y-87683390D01*
X143909523Y-87683390D02*
X143861904Y-87731009D01*
X143861904Y-87731009D02*
X143814285Y-87826247D01*
X143814285Y-87826247D02*
X143814285Y-88064342D01*
X143814285Y-88064342D02*
X143861904Y-88159580D01*
X143861904Y-88159580D02*
X143909523Y-88207200D01*
X143909523Y-88207200D02*
X144004761Y-88254819D01*
X144004761Y-88254819D02*
X144290475Y-88254819D01*
X144290475Y-88254819D02*
X144385713Y-88207200D01*
X144385713Y-88207200D02*
X144433332Y-88159580D01*
X108142857Y-79079580D02*
X108190476Y-79127200D01*
X108190476Y-79127200D02*
X108333333Y-79174819D01*
X108333333Y-79174819D02*
X108428571Y-79174819D01*
X108428571Y-79174819D02*
X108571428Y-79127200D01*
X108571428Y-79127200D02*
X108666666Y-79031961D01*
X108666666Y-79031961D02*
X108714285Y-78936723D01*
X108714285Y-78936723D02*
X108761904Y-78746247D01*
X108761904Y-78746247D02*
X108761904Y-78603390D01*
X108761904Y-78603390D02*
X108714285Y-78412914D01*
X108714285Y-78412914D02*
X108666666Y-78317676D01*
X108666666Y-78317676D02*
X108571428Y-78222438D01*
X108571428Y-78222438D02*
X108428571Y-78174819D01*
X108428571Y-78174819D02*
X108333333Y-78174819D01*
X108333333Y-78174819D02*
X108190476Y-78222438D01*
X108190476Y-78222438D02*
X108142857Y-78270057D01*
X107190476Y-79174819D02*
X107761904Y-79174819D01*
X107476190Y-79174819D02*
X107476190Y-78174819D01*
X107476190Y-78174819D02*
X107571428Y-78317676D01*
X107571428Y-78317676D02*
X107666666Y-78412914D01*
X107666666Y-78412914D02*
X107761904Y-78460533D01*
X106333333Y-78174819D02*
X106523809Y-78174819D01*
X106523809Y-78174819D02*
X106619047Y-78222438D01*
X106619047Y-78222438D02*
X106666666Y-78270057D01*
X106666666Y-78270057D02*
X106761904Y-78412914D01*
X106761904Y-78412914D02*
X106809523Y-78603390D01*
X106809523Y-78603390D02*
X106809523Y-78984342D01*
X106809523Y-78984342D02*
X106761904Y-79079580D01*
X106761904Y-79079580D02*
X106714285Y-79127200D01*
X106714285Y-79127200D02*
X106619047Y-79174819D01*
X106619047Y-79174819D02*
X106428571Y-79174819D01*
X106428571Y-79174819D02*
X106333333Y-79127200D01*
X106333333Y-79127200D02*
X106285714Y-79079580D01*
X106285714Y-79079580D02*
X106238095Y-78984342D01*
X106238095Y-78984342D02*
X106238095Y-78746247D01*
X106238095Y-78746247D02*
X106285714Y-78651009D01*
X106285714Y-78651009D02*
X106333333Y-78603390D01*
X106333333Y-78603390D02*
X106428571Y-78555771D01*
X106428571Y-78555771D02*
X106619047Y-78555771D01*
X106619047Y-78555771D02*
X106714285Y-78603390D01*
X106714285Y-78603390D02*
X106761904Y-78651009D01*
X106761904Y-78651009D02*
X106809523Y-78746247D01*
X58566666Y-89554819D02*
X58899999Y-89078628D01*
X59138094Y-89554819D02*
X59138094Y-88554819D01*
X59138094Y-88554819D02*
X58757142Y-88554819D01*
X58757142Y-88554819D02*
X58661904Y-88602438D01*
X58661904Y-88602438D02*
X58614285Y-88650057D01*
X58614285Y-88650057D02*
X58566666Y-88745295D01*
X58566666Y-88745295D02*
X58566666Y-88888152D01*
X58566666Y-88888152D02*
X58614285Y-88983390D01*
X58614285Y-88983390D02*
X58661904Y-89031009D01*
X58661904Y-89031009D02*
X58757142Y-89078628D01*
X58757142Y-89078628D02*
X59138094Y-89078628D01*
X58090475Y-89554819D02*
X57899999Y-89554819D01*
X57899999Y-89554819D02*
X57804761Y-89507200D01*
X57804761Y-89507200D02*
X57757142Y-89459580D01*
X57757142Y-89459580D02*
X57661904Y-89316723D01*
X57661904Y-89316723D02*
X57614285Y-89126247D01*
X57614285Y-89126247D02*
X57614285Y-88745295D01*
X57614285Y-88745295D02*
X57661904Y-88650057D01*
X57661904Y-88650057D02*
X57709523Y-88602438D01*
X57709523Y-88602438D02*
X57804761Y-88554819D01*
X57804761Y-88554819D02*
X57995237Y-88554819D01*
X57995237Y-88554819D02*
X58090475Y-88602438D01*
X58090475Y-88602438D02*
X58138094Y-88650057D01*
X58138094Y-88650057D02*
X58185713Y-88745295D01*
X58185713Y-88745295D02*
X58185713Y-88983390D01*
X58185713Y-88983390D02*
X58138094Y-89078628D01*
X58138094Y-89078628D02*
X58090475Y-89126247D01*
X58090475Y-89126247D02*
X57995237Y-89173866D01*
X57995237Y-89173866D02*
X57804761Y-89173866D01*
X57804761Y-89173866D02*
X57709523Y-89126247D01*
X57709523Y-89126247D02*
X57661904Y-89078628D01*
X57661904Y-89078628D02*
X57614285Y-88983390D01*
X111142857Y-75259580D02*
X111190476Y-75307200D01*
X111190476Y-75307200D02*
X111333333Y-75354819D01*
X111333333Y-75354819D02*
X111428571Y-75354819D01*
X111428571Y-75354819D02*
X111571428Y-75307200D01*
X111571428Y-75307200D02*
X111666666Y-75211961D01*
X111666666Y-75211961D02*
X111714285Y-75116723D01*
X111714285Y-75116723D02*
X111761904Y-74926247D01*
X111761904Y-74926247D02*
X111761904Y-74783390D01*
X111761904Y-74783390D02*
X111714285Y-74592914D01*
X111714285Y-74592914D02*
X111666666Y-74497676D01*
X111666666Y-74497676D02*
X111571428Y-74402438D01*
X111571428Y-74402438D02*
X111428571Y-74354819D01*
X111428571Y-74354819D02*
X111333333Y-74354819D01*
X111333333Y-74354819D02*
X111190476Y-74402438D01*
X111190476Y-74402438D02*
X111142857Y-74450057D01*
X110190476Y-75354819D02*
X110761904Y-75354819D01*
X110476190Y-75354819D02*
X110476190Y-74354819D01*
X110476190Y-74354819D02*
X110571428Y-74497676D01*
X110571428Y-74497676D02*
X110666666Y-74592914D01*
X110666666Y-74592914D02*
X110761904Y-74640533D01*
X109333333Y-74688152D02*
X109333333Y-75354819D01*
X109571428Y-74307200D02*
X109809523Y-75021485D01*
X109809523Y-75021485D02*
X109190476Y-75021485D01*
X86866666Y-80659580D02*
X86914285Y-80707200D01*
X86914285Y-80707200D02*
X87057142Y-80754819D01*
X87057142Y-80754819D02*
X87152380Y-80754819D01*
X87152380Y-80754819D02*
X87295237Y-80707200D01*
X87295237Y-80707200D02*
X87390475Y-80611961D01*
X87390475Y-80611961D02*
X87438094Y-80516723D01*
X87438094Y-80516723D02*
X87485713Y-80326247D01*
X87485713Y-80326247D02*
X87485713Y-80183390D01*
X87485713Y-80183390D02*
X87438094Y-79992914D01*
X87438094Y-79992914D02*
X87390475Y-79897676D01*
X87390475Y-79897676D02*
X87295237Y-79802438D01*
X87295237Y-79802438D02*
X87152380Y-79754819D01*
X87152380Y-79754819D02*
X87057142Y-79754819D01*
X87057142Y-79754819D02*
X86914285Y-79802438D01*
X86914285Y-79802438D02*
X86866666Y-79850057D01*
X86295237Y-80183390D02*
X86390475Y-80135771D01*
X86390475Y-80135771D02*
X86438094Y-80088152D01*
X86438094Y-80088152D02*
X86485713Y-79992914D01*
X86485713Y-79992914D02*
X86485713Y-79945295D01*
X86485713Y-79945295D02*
X86438094Y-79850057D01*
X86438094Y-79850057D02*
X86390475Y-79802438D01*
X86390475Y-79802438D02*
X86295237Y-79754819D01*
X86295237Y-79754819D02*
X86104761Y-79754819D01*
X86104761Y-79754819D02*
X86009523Y-79802438D01*
X86009523Y-79802438D02*
X85961904Y-79850057D01*
X85961904Y-79850057D02*
X85914285Y-79945295D01*
X85914285Y-79945295D02*
X85914285Y-79992914D01*
X85914285Y-79992914D02*
X85961904Y-80088152D01*
X85961904Y-80088152D02*
X86009523Y-80135771D01*
X86009523Y-80135771D02*
X86104761Y-80183390D01*
X86104761Y-80183390D02*
X86295237Y-80183390D01*
X86295237Y-80183390D02*
X86390475Y-80231009D01*
X86390475Y-80231009D02*
X86438094Y-80278628D01*
X86438094Y-80278628D02*
X86485713Y-80373866D01*
X86485713Y-80373866D02*
X86485713Y-80564342D01*
X86485713Y-80564342D02*
X86438094Y-80659580D01*
X86438094Y-80659580D02*
X86390475Y-80707200D01*
X86390475Y-80707200D02*
X86295237Y-80754819D01*
X86295237Y-80754819D02*
X86104761Y-80754819D01*
X86104761Y-80754819D02*
X86009523Y-80707200D01*
X86009523Y-80707200D02*
X85961904Y-80659580D01*
X85961904Y-80659580D02*
X85914285Y-80564342D01*
X85914285Y-80564342D02*
X85914285Y-80373866D01*
X85914285Y-80373866D02*
X85961904Y-80278628D01*
X85961904Y-80278628D02*
X86009523Y-80231009D01*
X86009523Y-80231009D02*
X86104761Y-80183390D01*
X128042857Y-85259580D02*
X128090476Y-85307200D01*
X128090476Y-85307200D02*
X128233333Y-85354819D01*
X128233333Y-85354819D02*
X128328571Y-85354819D01*
X128328571Y-85354819D02*
X128471428Y-85307200D01*
X128471428Y-85307200D02*
X128566666Y-85211961D01*
X128566666Y-85211961D02*
X128614285Y-85116723D01*
X128614285Y-85116723D02*
X128661904Y-84926247D01*
X128661904Y-84926247D02*
X128661904Y-84783390D01*
X128661904Y-84783390D02*
X128614285Y-84592914D01*
X128614285Y-84592914D02*
X128566666Y-84497676D01*
X128566666Y-84497676D02*
X128471428Y-84402438D01*
X128471428Y-84402438D02*
X128328571Y-84354819D01*
X128328571Y-84354819D02*
X128233333Y-84354819D01*
X128233333Y-84354819D02*
X128090476Y-84402438D01*
X128090476Y-84402438D02*
X128042857Y-84450057D01*
X127090476Y-85354819D02*
X127661904Y-85354819D01*
X127376190Y-85354819D02*
X127376190Y-84354819D01*
X127376190Y-84354819D02*
X127471428Y-84497676D01*
X127471428Y-84497676D02*
X127566666Y-84592914D01*
X127566666Y-84592914D02*
X127661904Y-84640533D01*
X126757142Y-84354819D02*
X126138095Y-84354819D01*
X126138095Y-84354819D02*
X126471428Y-84735771D01*
X126471428Y-84735771D02*
X126328571Y-84735771D01*
X126328571Y-84735771D02*
X126233333Y-84783390D01*
X126233333Y-84783390D02*
X126185714Y-84831009D01*
X126185714Y-84831009D02*
X126138095Y-84926247D01*
X126138095Y-84926247D02*
X126138095Y-85164342D01*
X126138095Y-85164342D02*
X126185714Y-85259580D01*
X126185714Y-85259580D02*
X126233333Y-85307200D01*
X126233333Y-85307200D02*
X126328571Y-85354819D01*
X126328571Y-85354819D02*
X126614285Y-85354819D01*
X126614285Y-85354819D02*
X126709523Y-85307200D01*
X126709523Y-85307200D02*
X126757142Y-85259580D01*
D11*
%TO.C,D1*%
X63260000Y-58150000D02*
X53250000Y-58150000D01*
X63260000Y-64650000D02*
X53250000Y-64650000D01*
X63260000Y-64650000D02*
X63260000Y-58150000D01*
%TO.C,C10*%
X82261252Y-79765000D02*
X81738748Y-79765000D01*
X82261252Y-81235000D02*
X81738748Y-81235000D01*
%TO.C,C5*%
X61487677Y-75701000D02*
X61487677Y-76899000D01*
X61527677Y-75438000D02*
X61527677Y-77162000D01*
X61567677Y-75238000D02*
X61567677Y-77362000D01*
X61607677Y-75070000D02*
X61607677Y-77530000D01*
X61647677Y-74923000D02*
X61647677Y-77677000D01*
X61687677Y-74791000D02*
X61687677Y-77809000D01*
X61727677Y-74670000D02*
X61727677Y-77930000D01*
X61767677Y-74558000D02*
X61767677Y-78042000D01*
X61807677Y-74454000D02*
X61807677Y-78146000D01*
X61847677Y-74356000D02*
X61847677Y-78244000D01*
X61887677Y-74263000D02*
X61887677Y-78337000D01*
X61927677Y-74176000D02*
X61927677Y-78424000D01*
X61967677Y-74092000D02*
X61967677Y-78508000D01*
X62007677Y-74012000D02*
X62007677Y-78588000D01*
X62047677Y-73935000D02*
X62047677Y-78665000D01*
X62087677Y-73861000D02*
X62087677Y-78739000D01*
X62127677Y-73790000D02*
X62127677Y-78810000D01*
X62167677Y-73722000D02*
X62167677Y-78878000D01*
X62207677Y-73656000D02*
X62207677Y-78944000D01*
X62247677Y-73592000D02*
X62247677Y-79008000D01*
X62287677Y-73530000D02*
X62287677Y-79070000D01*
X62327677Y-73470000D02*
X62327677Y-79130000D01*
X62367677Y-73412000D02*
X62367677Y-79188000D01*
X62407677Y-73355000D02*
X62407677Y-79245000D01*
X62447677Y-73300000D02*
X62447677Y-79300000D01*
X62487677Y-73247000D02*
X62487677Y-79353000D01*
X62527677Y-73195000D02*
X62527677Y-79405000D01*
X62567677Y-73144000D02*
X62567677Y-79456000D01*
X62607677Y-73095000D02*
X62607677Y-79505000D01*
X62647677Y-73046000D02*
X62647677Y-79554000D01*
X62687677Y-72999000D02*
X62687677Y-79601000D01*
X62727677Y-72953000D02*
X62727677Y-79647000D01*
X62767677Y-72909000D02*
X62767677Y-79691000D01*
X62807677Y-72865000D02*
X62807677Y-79735000D01*
X62847677Y-72822000D02*
X62847677Y-75060000D01*
X62847677Y-77540000D02*
X62847677Y-79778000D01*
X62887677Y-72780000D02*
X62887677Y-75060000D01*
X62887677Y-77540000D02*
X62887677Y-79820000D01*
X62927677Y-72739000D02*
X62927677Y-75060000D01*
X62927677Y-77540000D02*
X62927677Y-79861000D01*
X62967677Y-72699000D02*
X62967677Y-75060000D01*
X62967677Y-77540000D02*
X62967677Y-79901000D01*
X63007677Y-72660000D02*
X63007677Y-75060000D01*
X63007677Y-77540000D02*
X63007677Y-79940000D01*
X63047677Y-72622000D02*
X63047677Y-75060000D01*
X63047677Y-77540000D02*
X63047677Y-79978000D01*
X63087677Y-72584000D02*
X63087677Y-75060000D01*
X63087677Y-77540000D02*
X63087677Y-80016000D01*
X63127677Y-72548000D02*
X63127677Y-75060000D01*
X63127677Y-77540000D02*
X63127677Y-80052000D01*
X63167677Y-72512000D02*
X63167677Y-75060000D01*
X63167677Y-77540000D02*
X63167677Y-80088000D01*
X63207677Y-72477000D02*
X63207677Y-75060000D01*
X63207677Y-77540000D02*
X63207677Y-80123000D01*
X63247677Y-72442000D02*
X63247677Y-75060000D01*
X63247677Y-77540000D02*
X63247677Y-80158000D01*
X63287677Y-72409000D02*
X63287677Y-75060000D01*
X63287677Y-77540000D02*
X63287677Y-80191000D01*
X63327677Y-72376000D02*
X63327677Y-75060000D01*
X63327677Y-77540000D02*
X63327677Y-80224000D01*
X63367677Y-72343000D02*
X63367677Y-75060000D01*
X63367677Y-77540000D02*
X63367677Y-80257000D01*
X63407677Y-72312000D02*
X63407677Y-75060000D01*
X63407677Y-77540000D02*
X63407677Y-80288000D01*
X63447677Y-72280000D02*
X63447677Y-75060000D01*
X63447677Y-77540000D02*
X63447677Y-80320000D01*
X63487677Y-72250000D02*
X63487677Y-75060000D01*
X63487677Y-77540000D02*
X63487677Y-80350000D01*
X63527677Y-72220000D02*
X63527677Y-75060000D01*
X63527677Y-77540000D02*
X63527677Y-80380000D01*
X63567677Y-72191000D02*
X63567677Y-75060000D01*
X63567677Y-77540000D02*
X63567677Y-80409000D01*
X63607677Y-72162000D02*
X63607677Y-75060000D01*
X63607677Y-77540000D02*
X63607677Y-80438000D01*
X63647677Y-72134000D02*
X63647677Y-75060000D01*
X63647677Y-77540000D02*
X63647677Y-80466000D01*
X63687677Y-72107000D02*
X63687677Y-75060000D01*
X63687677Y-77540000D02*
X63687677Y-80493000D01*
X63727677Y-72080000D02*
X63727677Y-75060000D01*
X63727677Y-77540000D02*
X63727677Y-80520000D01*
X63767677Y-72053000D02*
X63767677Y-75060000D01*
X63767677Y-77540000D02*
X63767677Y-80547000D01*
X63807677Y-72028000D02*
X63807677Y-75060000D01*
X63807677Y-77540000D02*
X63807677Y-80572000D01*
X63847677Y-72002000D02*
X63847677Y-75060000D01*
X63847677Y-77540000D02*
X63847677Y-80598000D01*
X63887677Y-71977000D02*
X63887677Y-75060000D01*
X63887677Y-77540000D02*
X63887677Y-80623000D01*
X63927677Y-71953000D02*
X63927677Y-75060000D01*
X63927677Y-77540000D02*
X63927677Y-80647000D01*
X63967677Y-71929000D02*
X63967677Y-75060000D01*
X63967677Y-77540000D02*
X63967677Y-80671000D01*
X64007677Y-71906000D02*
X64007677Y-75060000D01*
X64007677Y-77540000D02*
X64007677Y-80694000D01*
X64047677Y-71883000D02*
X64047677Y-75060000D01*
X64047677Y-77540000D02*
X64047677Y-80717000D01*
X64087677Y-71861000D02*
X64087677Y-75060000D01*
X64087677Y-77540000D02*
X64087677Y-80739000D01*
X64127677Y-71839000D02*
X64127677Y-75060000D01*
X64127677Y-77540000D02*
X64127677Y-80761000D01*
X64167677Y-71817000D02*
X64167677Y-75060000D01*
X64167677Y-77540000D02*
X64167677Y-80783000D01*
X64207677Y-71796000D02*
X64207677Y-75060000D01*
X64207677Y-77540000D02*
X64207677Y-80804000D01*
X64247677Y-71776000D02*
X64247677Y-75060000D01*
X64247677Y-77540000D02*
X64247677Y-80824000D01*
X64287677Y-71756000D02*
X64287677Y-75060000D01*
X64287677Y-77540000D02*
X64287677Y-80844000D01*
X64327677Y-71736000D02*
X64327677Y-75060000D01*
X64327677Y-77540000D02*
X64327677Y-80864000D01*
X64367677Y-71717000D02*
X64367677Y-75060000D01*
X64367677Y-77540000D02*
X64367677Y-80883000D01*
X64407677Y-71698000D02*
X64407677Y-75060000D01*
X64407677Y-77540000D02*
X64407677Y-80902000D01*
X64447677Y-71680000D02*
X64447677Y-75060000D01*
X64447677Y-77540000D02*
X64447677Y-80920000D01*
X64487677Y-71662000D02*
X64487677Y-75060000D01*
X64487677Y-77540000D02*
X64487677Y-80938000D01*
X64527677Y-71644000D02*
X64527677Y-75060000D01*
X64527677Y-77540000D02*
X64527677Y-80956000D01*
X64567677Y-71627000D02*
X64567677Y-75060000D01*
X64567677Y-77540000D02*
X64567677Y-80973000D01*
X64607677Y-71610000D02*
X64607677Y-75060000D01*
X64607677Y-77540000D02*
X64607677Y-80990000D01*
X64647677Y-71594000D02*
X64647677Y-75060000D01*
X64647677Y-77540000D02*
X64647677Y-81006000D01*
X64687677Y-71578000D02*
X64687677Y-75060000D01*
X64687677Y-77540000D02*
X64687677Y-81022000D01*
X64727677Y-71562000D02*
X64727677Y-75060000D01*
X64727677Y-77540000D02*
X64727677Y-81038000D01*
X64767677Y-71547000D02*
X64767677Y-75060000D01*
X64767677Y-77540000D02*
X64767677Y-81053000D01*
X64807677Y-71532000D02*
X64807677Y-75060000D01*
X64807677Y-77540000D02*
X64807677Y-81068000D01*
X64847677Y-71518000D02*
X64847677Y-75060000D01*
X64847677Y-77540000D02*
X64847677Y-81082000D01*
X64887677Y-71503000D02*
X64887677Y-75060000D01*
X64887677Y-77540000D02*
X64887677Y-81097000D01*
X64927677Y-71490000D02*
X64927677Y-75060000D01*
X64927677Y-77540000D02*
X64927677Y-81110000D01*
X64967677Y-71476000D02*
X64967677Y-75060000D01*
X64967677Y-77540000D02*
X64967677Y-81124000D01*
X65007677Y-71463000D02*
X65007677Y-75060000D01*
X65007677Y-77540000D02*
X65007677Y-81137000D01*
X65047677Y-71451000D02*
X65047677Y-75060000D01*
X65047677Y-77540000D02*
X65047677Y-81149000D01*
X65087677Y-71439000D02*
X65087677Y-75060000D01*
X65087677Y-77540000D02*
X65087677Y-81161000D01*
X65127677Y-71427000D02*
X65127677Y-75060000D01*
X65127677Y-77540000D02*
X65127677Y-81173000D01*
X65167677Y-71415000D02*
X65167677Y-75060000D01*
X65167677Y-77540000D02*
X65167677Y-81185000D01*
X65207677Y-71404000D02*
X65207677Y-75060000D01*
X65207677Y-77540000D02*
X65207677Y-81196000D01*
X65247677Y-71393000D02*
X65247677Y-75060000D01*
X65247677Y-77540000D02*
X65247677Y-81207000D01*
X65287677Y-71383000D02*
X65287677Y-75060000D01*
X65287677Y-77540000D02*
X65287677Y-81217000D01*
X65327677Y-71372000D02*
X65327677Y-81228000D01*
X65367677Y-71363000D02*
X65367677Y-81237000D01*
X65407677Y-71353000D02*
X65407677Y-81247000D01*
X65447677Y-71344000D02*
X65447677Y-81256000D01*
X65487677Y-71335000D02*
X65487677Y-81265000D01*
X65527677Y-71327000D02*
X65527677Y-81273000D01*
X65567677Y-71319000D02*
X65567677Y-81281000D01*
X65607677Y-71311000D02*
X65607677Y-81289000D01*
X65647677Y-71303000D02*
X65647677Y-81297000D01*
X65687677Y-71296000D02*
X65687677Y-81304000D01*
X65727677Y-71289000D02*
X65727677Y-81311000D01*
X65767677Y-71283000D02*
X65767677Y-81317000D01*
X65807677Y-71277000D02*
X65807677Y-81323000D01*
X65847677Y-71271000D02*
X65847677Y-81329000D01*
X65887677Y-71265000D02*
X65887677Y-81335000D01*
X65927677Y-71260000D02*
X65927677Y-81340000D01*
X65967677Y-71255000D02*
X65967677Y-81345000D01*
X66007677Y-71251000D02*
X66007677Y-81349000D01*
X66047677Y-71246000D02*
X66047677Y-81354000D01*
X66087677Y-71243000D02*
X66087677Y-81357000D01*
X66127677Y-71239000D02*
X66127677Y-81361000D01*
X66167677Y-71236000D02*
X66167677Y-81364000D01*
X66207677Y-71233000D02*
X66207677Y-81367000D01*
X66247677Y-71230000D02*
X66247677Y-81370000D01*
X66287677Y-71228000D02*
X66287677Y-81372000D01*
X66327677Y-71226000D02*
X66327677Y-81374000D01*
X66367677Y-71224000D02*
X66367677Y-81376000D01*
X66407677Y-71223000D02*
X66407677Y-81377000D01*
X66447677Y-71221000D02*
X66447677Y-81379000D01*
X66487677Y-71221000D02*
X66487677Y-81379000D01*
X66527677Y-71220000D02*
X66527677Y-81380000D01*
X66567677Y-71220000D02*
X66567677Y-81380000D01*
X71547323Y-72925000D02*
X71547323Y-73925000D01*
X72047323Y-73425000D02*
X71047323Y-73425000D01*
X71687677Y-76300000D02*
G75*
G02*
X61447677Y-76300000I-5120000J0D01*
G01*
X61447677Y-76300000D02*
G75*
G02*
X71687677Y-76300000I5120000J0D01*
G01*
%TO.C,C7*%
X57261252Y-79865000D02*
X56738748Y-79865000D01*
X57261252Y-81335000D02*
X56738748Y-81335000D01*
%TO.C,R7*%
X60065000Y-88027064D02*
X60065000Y-87572936D01*
X61535000Y-88027064D02*
X61535000Y-87572936D01*
%TO.C,R18*%
X83927064Y-71265000D02*
X83472936Y-71265000D01*
X83927064Y-72735000D02*
X83472936Y-72735000D01*
%TO.C,C11*%
X135887677Y-75601000D02*
X135887677Y-76799000D01*
X135927677Y-75338000D02*
X135927677Y-77062000D01*
X135967677Y-75138000D02*
X135967677Y-77262000D01*
X136007677Y-74970000D02*
X136007677Y-77430000D01*
X136047677Y-74823000D02*
X136047677Y-77577000D01*
X136087677Y-74691000D02*
X136087677Y-77709000D01*
X136127677Y-74570000D02*
X136127677Y-77830000D01*
X136167677Y-74458000D02*
X136167677Y-77942000D01*
X136207677Y-74354000D02*
X136207677Y-78046000D01*
X136247677Y-74256000D02*
X136247677Y-78144000D01*
X136287677Y-74163000D02*
X136287677Y-78237000D01*
X136327677Y-74076000D02*
X136327677Y-78324000D01*
X136367677Y-73992000D02*
X136367677Y-78408000D01*
X136407677Y-73912000D02*
X136407677Y-78488000D01*
X136447677Y-73835000D02*
X136447677Y-78565000D01*
X136487677Y-73761000D02*
X136487677Y-78639000D01*
X136527677Y-73690000D02*
X136527677Y-78710000D01*
X136567677Y-73622000D02*
X136567677Y-78778000D01*
X136607677Y-73556000D02*
X136607677Y-78844000D01*
X136647677Y-73492000D02*
X136647677Y-78908000D01*
X136687677Y-73430000D02*
X136687677Y-78970000D01*
X136727677Y-73370000D02*
X136727677Y-79030000D01*
X136767677Y-73312000D02*
X136767677Y-79088000D01*
X136807677Y-73255000D02*
X136807677Y-79145000D01*
X136847677Y-73200000D02*
X136847677Y-79200000D01*
X136887677Y-73147000D02*
X136887677Y-79253000D01*
X136927677Y-73095000D02*
X136927677Y-79305000D01*
X136967677Y-73044000D02*
X136967677Y-79356000D01*
X137007677Y-72995000D02*
X137007677Y-79405000D01*
X137047677Y-72946000D02*
X137047677Y-79454000D01*
X137087677Y-72899000D02*
X137087677Y-79501000D01*
X137127677Y-72853000D02*
X137127677Y-79547000D01*
X137167677Y-72809000D02*
X137167677Y-79591000D01*
X137207677Y-72765000D02*
X137207677Y-79635000D01*
X137247677Y-72722000D02*
X137247677Y-74960000D01*
X137247677Y-77440000D02*
X137247677Y-79678000D01*
X137287677Y-72680000D02*
X137287677Y-74960000D01*
X137287677Y-77440000D02*
X137287677Y-79720000D01*
X137327677Y-72639000D02*
X137327677Y-74960000D01*
X137327677Y-77440000D02*
X137327677Y-79761000D01*
X137367677Y-72599000D02*
X137367677Y-74960000D01*
X137367677Y-77440000D02*
X137367677Y-79801000D01*
X137407677Y-72560000D02*
X137407677Y-74960000D01*
X137407677Y-77440000D02*
X137407677Y-79840000D01*
X137447677Y-72522000D02*
X137447677Y-74960000D01*
X137447677Y-77440000D02*
X137447677Y-79878000D01*
X137487677Y-72484000D02*
X137487677Y-74960000D01*
X137487677Y-77440000D02*
X137487677Y-79916000D01*
X137527677Y-72448000D02*
X137527677Y-74960000D01*
X137527677Y-77440000D02*
X137527677Y-79952000D01*
X137567677Y-72412000D02*
X137567677Y-74960000D01*
X137567677Y-77440000D02*
X137567677Y-79988000D01*
X137607677Y-72377000D02*
X137607677Y-74960000D01*
X137607677Y-77440000D02*
X137607677Y-80023000D01*
X137647677Y-72342000D02*
X137647677Y-74960000D01*
X137647677Y-77440000D02*
X137647677Y-80058000D01*
X137687677Y-72309000D02*
X137687677Y-74960000D01*
X137687677Y-77440000D02*
X137687677Y-80091000D01*
X137727677Y-72276000D02*
X137727677Y-74960000D01*
X137727677Y-77440000D02*
X137727677Y-80124000D01*
X137767677Y-72243000D02*
X137767677Y-74960000D01*
X137767677Y-77440000D02*
X137767677Y-80157000D01*
X137807677Y-72212000D02*
X137807677Y-74960000D01*
X137807677Y-77440000D02*
X137807677Y-80188000D01*
X137847677Y-72180000D02*
X137847677Y-74960000D01*
X137847677Y-77440000D02*
X137847677Y-80220000D01*
X137887677Y-72150000D02*
X137887677Y-74960000D01*
X137887677Y-77440000D02*
X137887677Y-80250000D01*
X137927677Y-72120000D02*
X137927677Y-74960000D01*
X137927677Y-77440000D02*
X137927677Y-80280000D01*
X137967677Y-72091000D02*
X137967677Y-74960000D01*
X137967677Y-77440000D02*
X137967677Y-80309000D01*
X138007677Y-72062000D02*
X138007677Y-74960000D01*
X138007677Y-77440000D02*
X138007677Y-80338000D01*
X138047677Y-72034000D02*
X138047677Y-74960000D01*
X138047677Y-77440000D02*
X138047677Y-80366000D01*
X138087677Y-72007000D02*
X138087677Y-74960000D01*
X138087677Y-77440000D02*
X138087677Y-80393000D01*
X138127677Y-71980000D02*
X138127677Y-74960000D01*
X138127677Y-77440000D02*
X138127677Y-80420000D01*
X138167677Y-71953000D02*
X138167677Y-74960000D01*
X138167677Y-77440000D02*
X138167677Y-80447000D01*
X138207677Y-71928000D02*
X138207677Y-74960000D01*
X138207677Y-77440000D02*
X138207677Y-80472000D01*
X138247677Y-71902000D02*
X138247677Y-74960000D01*
X138247677Y-77440000D02*
X138247677Y-80498000D01*
X138287677Y-71877000D02*
X138287677Y-74960000D01*
X138287677Y-77440000D02*
X138287677Y-80523000D01*
X138327677Y-71853000D02*
X138327677Y-74960000D01*
X138327677Y-77440000D02*
X138327677Y-80547000D01*
X138367677Y-71829000D02*
X138367677Y-74960000D01*
X138367677Y-77440000D02*
X138367677Y-80571000D01*
X138407677Y-71806000D02*
X138407677Y-74960000D01*
X138407677Y-77440000D02*
X138407677Y-80594000D01*
X138447677Y-71783000D02*
X138447677Y-74960000D01*
X138447677Y-77440000D02*
X138447677Y-80617000D01*
X138487677Y-71761000D02*
X138487677Y-74960000D01*
X138487677Y-77440000D02*
X138487677Y-80639000D01*
X138527677Y-71739000D02*
X138527677Y-74960000D01*
X138527677Y-77440000D02*
X138527677Y-80661000D01*
X138567677Y-71717000D02*
X138567677Y-74960000D01*
X138567677Y-77440000D02*
X138567677Y-80683000D01*
X138607677Y-71696000D02*
X138607677Y-74960000D01*
X138607677Y-77440000D02*
X138607677Y-80704000D01*
X138647677Y-71676000D02*
X138647677Y-74960000D01*
X138647677Y-77440000D02*
X138647677Y-80724000D01*
X138687677Y-71656000D02*
X138687677Y-74960000D01*
X138687677Y-77440000D02*
X138687677Y-80744000D01*
X138727677Y-71636000D02*
X138727677Y-74960000D01*
X138727677Y-77440000D02*
X138727677Y-80764000D01*
X138767677Y-71617000D02*
X138767677Y-74960000D01*
X138767677Y-77440000D02*
X138767677Y-80783000D01*
X138807677Y-71598000D02*
X138807677Y-74960000D01*
X138807677Y-77440000D02*
X138807677Y-80802000D01*
X138847677Y-71580000D02*
X138847677Y-74960000D01*
X138847677Y-77440000D02*
X138847677Y-80820000D01*
X138887677Y-71562000D02*
X138887677Y-74960000D01*
X138887677Y-77440000D02*
X138887677Y-80838000D01*
X138927677Y-71544000D02*
X138927677Y-74960000D01*
X138927677Y-77440000D02*
X138927677Y-80856000D01*
X138967677Y-71527000D02*
X138967677Y-74960000D01*
X138967677Y-77440000D02*
X138967677Y-80873000D01*
X139007677Y-71510000D02*
X139007677Y-74960000D01*
X139007677Y-77440000D02*
X139007677Y-80890000D01*
X139047677Y-71494000D02*
X139047677Y-74960000D01*
X139047677Y-77440000D02*
X139047677Y-80906000D01*
X139087677Y-71478000D02*
X139087677Y-74960000D01*
X139087677Y-77440000D02*
X139087677Y-80922000D01*
X139127677Y-71462000D02*
X139127677Y-74960000D01*
X139127677Y-77440000D02*
X139127677Y-80938000D01*
X139167677Y-71447000D02*
X139167677Y-74960000D01*
X139167677Y-77440000D02*
X139167677Y-80953000D01*
X139207677Y-71432000D02*
X139207677Y-74960000D01*
X139207677Y-77440000D02*
X139207677Y-80968000D01*
X139247677Y-71418000D02*
X139247677Y-74960000D01*
X139247677Y-77440000D02*
X139247677Y-80982000D01*
X139287677Y-71403000D02*
X139287677Y-74960000D01*
X139287677Y-77440000D02*
X139287677Y-80997000D01*
X139327677Y-71390000D02*
X139327677Y-74960000D01*
X139327677Y-77440000D02*
X139327677Y-81010000D01*
X139367677Y-71376000D02*
X139367677Y-74960000D01*
X139367677Y-77440000D02*
X139367677Y-81024000D01*
X139407677Y-71363000D02*
X139407677Y-74960000D01*
X139407677Y-77440000D02*
X139407677Y-81037000D01*
X139447677Y-71351000D02*
X139447677Y-74960000D01*
X139447677Y-77440000D02*
X139447677Y-81049000D01*
X139487677Y-71339000D02*
X139487677Y-74960000D01*
X139487677Y-77440000D02*
X139487677Y-81061000D01*
X139527677Y-71327000D02*
X139527677Y-74960000D01*
X139527677Y-77440000D02*
X139527677Y-81073000D01*
X139567677Y-71315000D02*
X139567677Y-74960000D01*
X139567677Y-77440000D02*
X139567677Y-81085000D01*
X139607677Y-71304000D02*
X139607677Y-74960000D01*
X139607677Y-77440000D02*
X139607677Y-81096000D01*
X139647677Y-71293000D02*
X139647677Y-74960000D01*
X139647677Y-77440000D02*
X139647677Y-81107000D01*
X139687677Y-71283000D02*
X139687677Y-74960000D01*
X139687677Y-77440000D02*
X139687677Y-81117000D01*
X139727677Y-71272000D02*
X139727677Y-81128000D01*
X139767677Y-71263000D02*
X139767677Y-81137000D01*
X139807677Y-71253000D02*
X139807677Y-81147000D01*
X139847677Y-71244000D02*
X139847677Y-81156000D01*
X139887677Y-71235000D02*
X139887677Y-81165000D01*
X139927677Y-71227000D02*
X139927677Y-81173000D01*
X139967677Y-71219000D02*
X139967677Y-81181000D01*
X140007677Y-71211000D02*
X140007677Y-81189000D01*
X140047677Y-71203000D02*
X140047677Y-81197000D01*
X140087677Y-71196000D02*
X140087677Y-81204000D01*
X140127677Y-71189000D02*
X140127677Y-81211000D01*
X140167677Y-71183000D02*
X140167677Y-81217000D01*
X140207677Y-71177000D02*
X140207677Y-81223000D01*
X140247677Y-71171000D02*
X140247677Y-81229000D01*
X140287677Y-71165000D02*
X140287677Y-81235000D01*
X140327677Y-71160000D02*
X140327677Y-81240000D01*
X140367677Y-71155000D02*
X140367677Y-81245000D01*
X140407677Y-71151000D02*
X140407677Y-81249000D01*
X140447677Y-71146000D02*
X140447677Y-81254000D01*
X140487677Y-71143000D02*
X140487677Y-81257000D01*
X140527677Y-71139000D02*
X140527677Y-81261000D01*
X140567677Y-71136000D02*
X140567677Y-81264000D01*
X140607677Y-71133000D02*
X140607677Y-81267000D01*
X140647677Y-71130000D02*
X140647677Y-81270000D01*
X140687677Y-71128000D02*
X140687677Y-81272000D01*
X140727677Y-71126000D02*
X140727677Y-81274000D01*
X140767677Y-71124000D02*
X140767677Y-81276000D01*
X140807677Y-71123000D02*
X140807677Y-81277000D01*
X140847677Y-71121000D02*
X140847677Y-81279000D01*
X140887677Y-71121000D02*
X140887677Y-81279000D01*
X140927677Y-71120000D02*
X140927677Y-81280000D01*
X140967677Y-71120000D02*
X140967677Y-81280000D01*
X145947323Y-72825000D02*
X145947323Y-73825000D01*
X146447323Y-73325000D02*
X145447323Y-73325000D01*
X146087677Y-76200000D02*
G75*
G02*
X135847677Y-76200000I-5120000J0D01*
G01*
X135847677Y-76200000D02*
G75*
G02*
X146087677Y-76200000I5120000J0D01*
G01*
%TO.C,R10*%
X55165000Y-88227064D02*
X55165000Y-87772936D01*
X56635000Y-88227064D02*
X56635000Y-87772936D01*
%TO.C,R12*%
X181477064Y-58865000D02*
X181022936Y-58865000D01*
X181477064Y-60335000D02*
X181022936Y-60335000D01*
%TO.C,R11*%
X52565000Y-86327064D02*
X52565000Y-85872936D01*
X54035000Y-86327064D02*
X54035000Y-85872936D01*
%TO.C,R19*%
X79172936Y-71165000D02*
X79627064Y-71165000D01*
X79172936Y-72635000D02*
X79627064Y-72635000D01*
%TO.C,C4*%
X141465000Y-88598752D02*
X141465000Y-88076248D01*
X142935000Y-88598752D02*
X142935000Y-88076248D01*
%TO.C,C3*%
X145990000Y-87861252D02*
X145990000Y-87338748D01*
X147460000Y-87861252D02*
X147460000Y-87338748D01*
%TO.C,C16*%
X107761252Y-79665000D02*
X107238748Y-79665000D01*
X107761252Y-81135000D02*
X107238748Y-81135000D01*
%TO.C,R9*%
X57665000Y-86627064D02*
X57665000Y-86172936D01*
X59135000Y-86627064D02*
X59135000Y-86172936D01*
%TO.C,C14*%
X111987677Y-75601000D02*
X111987677Y-76799000D01*
X112027677Y-75338000D02*
X112027677Y-77062000D01*
X112067677Y-75138000D02*
X112067677Y-77262000D01*
X112107677Y-74970000D02*
X112107677Y-77430000D01*
X112147677Y-74823000D02*
X112147677Y-77577000D01*
X112187677Y-74691000D02*
X112187677Y-77709000D01*
X112227677Y-74570000D02*
X112227677Y-77830000D01*
X112267677Y-74458000D02*
X112267677Y-77942000D01*
X112307677Y-74354000D02*
X112307677Y-78046000D01*
X112347677Y-74256000D02*
X112347677Y-78144000D01*
X112387677Y-74163000D02*
X112387677Y-78237000D01*
X112427677Y-74076000D02*
X112427677Y-78324000D01*
X112467677Y-73992000D02*
X112467677Y-78408000D01*
X112507677Y-73912000D02*
X112507677Y-78488000D01*
X112547677Y-73835000D02*
X112547677Y-78565000D01*
X112587677Y-73761000D02*
X112587677Y-78639000D01*
X112627677Y-73690000D02*
X112627677Y-78710000D01*
X112667677Y-73622000D02*
X112667677Y-78778000D01*
X112707677Y-73556000D02*
X112707677Y-78844000D01*
X112747677Y-73492000D02*
X112747677Y-78908000D01*
X112787677Y-73430000D02*
X112787677Y-78970000D01*
X112827677Y-73370000D02*
X112827677Y-79030000D01*
X112867677Y-73312000D02*
X112867677Y-79088000D01*
X112907677Y-73255000D02*
X112907677Y-79145000D01*
X112947677Y-73200000D02*
X112947677Y-79200000D01*
X112987677Y-73147000D02*
X112987677Y-79253000D01*
X113027677Y-73095000D02*
X113027677Y-79305000D01*
X113067677Y-73044000D02*
X113067677Y-79356000D01*
X113107677Y-72995000D02*
X113107677Y-79405000D01*
X113147677Y-72946000D02*
X113147677Y-79454000D01*
X113187677Y-72899000D02*
X113187677Y-79501000D01*
X113227677Y-72853000D02*
X113227677Y-79547000D01*
X113267677Y-72809000D02*
X113267677Y-79591000D01*
X113307677Y-72765000D02*
X113307677Y-79635000D01*
X113347677Y-72722000D02*
X113347677Y-74960000D01*
X113347677Y-77440000D02*
X113347677Y-79678000D01*
X113387677Y-72680000D02*
X113387677Y-74960000D01*
X113387677Y-77440000D02*
X113387677Y-79720000D01*
X113427677Y-72639000D02*
X113427677Y-74960000D01*
X113427677Y-77440000D02*
X113427677Y-79761000D01*
X113467677Y-72599000D02*
X113467677Y-74960000D01*
X113467677Y-77440000D02*
X113467677Y-79801000D01*
X113507677Y-72560000D02*
X113507677Y-74960000D01*
X113507677Y-77440000D02*
X113507677Y-79840000D01*
X113547677Y-72522000D02*
X113547677Y-74960000D01*
X113547677Y-77440000D02*
X113547677Y-79878000D01*
X113587677Y-72484000D02*
X113587677Y-74960000D01*
X113587677Y-77440000D02*
X113587677Y-79916000D01*
X113627677Y-72448000D02*
X113627677Y-74960000D01*
X113627677Y-77440000D02*
X113627677Y-79952000D01*
X113667677Y-72412000D02*
X113667677Y-74960000D01*
X113667677Y-77440000D02*
X113667677Y-79988000D01*
X113707677Y-72377000D02*
X113707677Y-74960000D01*
X113707677Y-77440000D02*
X113707677Y-80023000D01*
X113747677Y-72342000D02*
X113747677Y-74960000D01*
X113747677Y-77440000D02*
X113747677Y-80058000D01*
X113787677Y-72309000D02*
X113787677Y-74960000D01*
X113787677Y-77440000D02*
X113787677Y-80091000D01*
X113827677Y-72276000D02*
X113827677Y-74960000D01*
X113827677Y-77440000D02*
X113827677Y-80124000D01*
X113867677Y-72243000D02*
X113867677Y-74960000D01*
X113867677Y-77440000D02*
X113867677Y-80157000D01*
X113907677Y-72212000D02*
X113907677Y-74960000D01*
X113907677Y-77440000D02*
X113907677Y-80188000D01*
X113947677Y-72180000D02*
X113947677Y-74960000D01*
X113947677Y-77440000D02*
X113947677Y-80220000D01*
X113987677Y-72150000D02*
X113987677Y-74960000D01*
X113987677Y-77440000D02*
X113987677Y-80250000D01*
X114027677Y-72120000D02*
X114027677Y-74960000D01*
X114027677Y-77440000D02*
X114027677Y-80280000D01*
X114067677Y-72091000D02*
X114067677Y-74960000D01*
X114067677Y-77440000D02*
X114067677Y-80309000D01*
X114107677Y-72062000D02*
X114107677Y-74960000D01*
X114107677Y-77440000D02*
X114107677Y-80338000D01*
X114147677Y-72034000D02*
X114147677Y-74960000D01*
X114147677Y-77440000D02*
X114147677Y-80366000D01*
X114187677Y-72007000D02*
X114187677Y-74960000D01*
X114187677Y-77440000D02*
X114187677Y-80393000D01*
X114227677Y-71980000D02*
X114227677Y-74960000D01*
X114227677Y-77440000D02*
X114227677Y-80420000D01*
X114267677Y-71953000D02*
X114267677Y-74960000D01*
X114267677Y-77440000D02*
X114267677Y-80447000D01*
X114307677Y-71928000D02*
X114307677Y-74960000D01*
X114307677Y-77440000D02*
X114307677Y-80472000D01*
X114347677Y-71902000D02*
X114347677Y-74960000D01*
X114347677Y-77440000D02*
X114347677Y-80498000D01*
X114387677Y-71877000D02*
X114387677Y-74960000D01*
X114387677Y-77440000D02*
X114387677Y-80523000D01*
X114427677Y-71853000D02*
X114427677Y-74960000D01*
X114427677Y-77440000D02*
X114427677Y-80547000D01*
X114467677Y-71829000D02*
X114467677Y-74960000D01*
X114467677Y-77440000D02*
X114467677Y-80571000D01*
X114507677Y-71806000D02*
X114507677Y-74960000D01*
X114507677Y-77440000D02*
X114507677Y-80594000D01*
X114547677Y-71783000D02*
X114547677Y-74960000D01*
X114547677Y-77440000D02*
X114547677Y-80617000D01*
X114587677Y-71761000D02*
X114587677Y-74960000D01*
X114587677Y-77440000D02*
X114587677Y-80639000D01*
X114627677Y-71739000D02*
X114627677Y-74960000D01*
X114627677Y-77440000D02*
X114627677Y-80661000D01*
X114667677Y-71717000D02*
X114667677Y-74960000D01*
X114667677Y-77440000D02*
X114667677Y-80683000D01*
X114707677Y-71696000D02*
X114707677Y-74960000D01*
X114707677Y-77440000D02*
X114707677Y-80704000D01*
X114747677Y-71676000D02*
X114747677Y-74960000D01*
X114747677Y-77440000D02*
X114747677Y-80724000D01*
X114787677Y-71656000D02*
X114787677Y-74960000D01*
X114787677Y-77440000D02*
X114787677Y-80744000D01*
X114827677Y-71636000D02*
X114827677Y-74960000D01*
X114827677Y-77440000D02*
X114827677Y-80764000D01*
X114867677Y-71617000D02*
X114867677Y-74960000D01*
X114867677Y-77440000D02*
X114867677Y-80783000D01*
X114907677Y-71598000D02*
X114907677Y-74960000D01*
X114907677Y-77440000D02*
X114907677Y-80802000D01*
X114947677Y-71580000D02*
X114947677Y-74960000D01*
X114947677Y-77440000D02*
X114947677Y-80820000D01*
X114987677Y-71562000D02*
X114987677Y-74960000D01*
X114987677Y-77440000D02*
X114987677Y-80838000D01*
X115027677Y-71544000D02*
X115027677Y-74960000D01*
X115027677Y-77440000D02*
X115027677Y-80856000D01*
X115067677Y-71527000D02*
X115067677Y-74960000D01*
X115067677Y-77440000D02*
X115067677Y-80873000D01*
X115107677Y-71510000D02*
X115107677Y-74960000D01*
X115107677Y-77440000D02*
X115107677Y-80890000D01*
X115147677Y-71494000D02*
X115147677Y-74960000D01*
X115147677Y-77440000D02*
X115147677Y-80906000D01*
X115187677Y-71478000D02*
X115187677Y-74960000D01*
X115187677Y-77440000D02*
X115187677Y-80922000D01*
X115227677Y-71462000D02*
X115227677Y-74960000D01*
X115227677Y-77440000D02*
X115227677Y-80938000D01*
X115267677Y-71447000D02*
X115267677Y-74960000D01*
X115267677Y-77440000D02*
X115267677Y-80953000D01*
X115307677Y-71432000D02*
X115307677Y-74960000D01*
X115307677Y-77440000D02*
X115307677Y-80968000D01*
X115347677Y-71418000D02*
X115347677Y-74960000D01*
X115347677Y-77440000D02*
X115347677Y-80982000D01*
X115387677Y-71403000D02*
X115387677Y-74960000D01*
X115387677Y-77440000D02*
X115387677Y-80997000D01*
X115427677Y-71390000D02*
X115427677Y-74960000D01*
X115427677Y-77440000D02*
X115427677Y-81010000D01*
X115467677Y-71376000D02*
X115467677Y-74960000D01*
X115467677Y-77440000D02*
X115467677Y-81024000D01*
X115507677Y-71363000D02*
X115507677Y-74960000D01*
X115507677Y-77440000D02*
X115507677Y-81037000D01*
X115547677Y-71351000D02*
X115547677Y-74960000D01*
X115547677Y-77440000D02*
X115547677Y-81049000D01*
X115587677Y-71339000D02*
X115587677Y-74960000D01*
X115587677Y-77440000D02*
X115587677Y-81061000D01*
X115627677Y-71327000D02*
X115627677Y-74960000D01*
X115627677Y-77440000D02*
X115627677Y-81073000D01*
X115667677Y-71315000D02*
X115667677Y-74960000D01*
X115667677Y-77440000D02*
X115667677Y-81085000D01*
X115707677Y-71304000D02*
X115707677Y-74960000D01*
X115707677Y-77440000D02*
X115707677Y-81096000D01*
X115747677Y-71293000D02*
X115747677Y-74960000D01*
X115747677Y-77440000D02*
X115747677Y-81107000D01*
X115787677Y-71283000D02*
X115787677Y-74960000D01*
X115787677Y-77440000D02*
X115787677Y-81117000D01*
X115827677Y-71272000D02*
X115827677Y-81128000D01*
X115867677Y-71263000D02*
X115867677Y-81137000D01*
X115907677Y-71253000D02*
X115907677Y-81147000D01*
X115947677Y-71244000D02*
X115947677Y-81156000D01*
X115987677Y-71235000D02*
X115987677Y-81165000D01*
X116027677Y-71227000D02*
X116027677Y-81173000D01*
X116067677Y-71219000D02*
X116067677Y-81181000D01*
X116107677Y-71211000D02*
X116107677Y-81189000D01*
X116147677Y-71203000D02*
X116147677Y-81197000D01*
X116187677Y-71196000D02*
X116187677Y-81204000D01*
X116227677Y-71189000D02*
X116227677Y-81211000D01*
X116267677Y-71183000D02*
X116267677Y-81217000D01*
X116307677Y-71177000D02*
X116307677Y-81223000D01*
X116347677Y-71171000D02*
X116347677Y-81229000D01*
X116387677Y-71165000D02*
X116387677Y-81235000D01*
X116427677Y-71160000D02*
X116427677Y-81240000D01*
X116467677Y-71155000D02*
X116467677Y-81245000D01*
X116507677Y-71151000D02*
X116507677Y-81249000D01*
X116547677Y-71146000D02*
X116547677Y-81254000D01*
X116587677Y-71143000D02*
X116587677Y-81257000D01*
X116627677Y-71139000D02*
X116627677Y-81261000D01*
X116667677Y-71136000D02*
X116667677Y-81264000D01*
X116707677Y-71133000D02*
X116707677Y-81267000D01*
X116747677Y-71130000D02*
X116747677Y-81270000D01*
X116787677Y-71128000D02*
X116787677Y-81272000D01*
X116827677Y-71126000D02*
X116827677Y-81274000D01*
X116867677Y-71124000D02*
X116867677Y-81276000D01*
X116907677Y-71123000D02*
X116907677Y-81277000D01*
X116947677Y-71121000D02*
X116947677Y-81279000D01*
X116987677Y-71121000D02*
X116987677Y-81279000D01*
X117027677Y-71120000D02*
X117027677Y-81280000D01*
X117067677Y-71120000D02*
X117067677Y-81280000D01*
X122047323Y-72825000D02*
X122047323Y-73825000D01*
X122547323Y-73325000D02*
X121547323Y-73325000D01*
X122187677Y-76200000D02*
G75*
G02*
X111947677Y-76200000I-5120000J0D01*
G01*
X111947677Y-76200000D02*
G75*
G02*
X122187677Y-76200000I5120000J0D01*
G01*
%TO.C,C8*%
X86587677Y-75651000D02*
X86587677Y-76849000D01*
X86627677Y-75388000D02*
X86627677Y-77112000D01*
X86667677Y-75188000D02*
X86667677Y-77312000D01*
X86707677Y-75020000D02*
X86707677Y-77480000D01*
X86747677Y-74873000D02*
X86747677Y-77627000D01*
X86787677Y-74741000D02*
X86787677Y-77759000D01*
X86827677Y-74620000D02*
X86827677Y-77880000D01*
X86867677Y-74508000D02*
X86867677Y-77992000D01*
X86907677Y-74404000D02*
X86907677Y-78096000D01*
X86947677Y-74306000D02*
X86947677Y-78194000D01*
X86987677Y-74213000D02*
X86987677Y-78287000D01*
X87027677Y-74126000D02*
X87027677Y-78374000D01*
X87067677Y-74042000D02*
X87067677Y-78458000D01*
X87107677Y-73962000D02*
X87107677Y-78538000D01*
X87147677Y-73885000D02*
X87147677Y-78615000D01*
X87187677Y-73811000D02*
X87187677Y-78689000D01*
X87227677Y-73740000D02*
X87227677Y-78760000D01*
X87267677Y-73672000D02*
X87267677Y-78828000D01*
X87307677Y-73606000D02*
X87307677Y-78894000D01*
X87347677Y-73542000D02*
X87347677Y-78958000D01*
X87387677Y-73480000D02*
X87387677Y-79020000D01*
X87427677Y-73420000D02*
X87427677Y-79080000D01*
X87467677Y-73362000D02*
X87467677Y-79138000D01*
X87507677Y-73305000D02*
X87507677Y-79195000D01*
X87547677Y-73250000D02*
X87547677Y-79250000D01*
X87587677Y-73197000D02*
X87587677Y-79303000D01*
X87627677Y-73145000D02*
X87627677Y-79355000D01*
X87667677Y-73094000D02*
X87667677Y-79406000D01*
X87707677Y-73045000D02*
X87707677Y-79455000D01*
X87747677Y-72996000D02*
X87747677Y-79504000D01*
X87787677Y-72949000D02*
X87787677Y-79551000D01*
X87827677Y-72903000D02*
X87827677Y-79597000D01*
X87867677Y-72859000D02*
X87867677Y-79641000D01*
X87907677Y-72815000D02*
X87907677Y-79685000D01*
X87947677Y-72772000D02*
X87947677Y-75010000D01*
X87947677Y-77490000D02*
X87947677Y-79728000D01*
X87987677Y-72730000D02*
X87987677Y-75010000D01*
X87987677Y-77490000D02*
X87987677Y-79770000D01*
X88027677Y-72689000D02*
X88027677Y-75010000D01*
X88027677Y-77490000D02*
X88027677Y-79811000D01*
X88067677Y-72649000D02*
X88067677Y-75010000D01*
X88067677Y-77490000D02*
X88067677Y-79851000D01*
X88107677Y-72610000D02*
X88107677Y-75010000D01*
X88107677Y-77490000D02*
X88107677Y-79890000D01*
X88147677Y-72572000D02*
X88147677Y-75010000D01*
X88147677Y-77490000D02*
X88147677Y-79928000D01*
X88187677Y-72534000D02*
X88187677Y-75010000D01*
X88187677Y-77490000D02*
X88187677Y-79966000D01*
X88227677Y-72498000D02*
X88227677Y-75010000D01*
X88227677Y-77490000D02*
X88227677Y-80002000D01*
X88267677Y-72462000D02*
X88267677Y-75010000D01*
X88267677Y-77490000D02*
X88267677Y-80038000D01*
X88307677Y-72427000D02*
X88307677Y-75010000D01*
X88307677Y-77490000D02*
X88307677Y-80073000D01*
X88347677Y-72392000D02*
X88347677Y-75010000D01*
X88347677Y-77490000D02*
X88347677Y-80108000D01*
X88387677Y-72359000D02*
X88387677Y-75010000D01*
X88387677Y-77490000D02*
X88387677Y-80141000D01*
X88427677Y-72326000D02*
X88427677Y-75010000D01*
X88427677Y-77490000D02*
X88427677Y-80174000D01*
X88467677Y-72293000D02*
X88467677Y-75010000D01*
X88467677Y-77490000D02*
X88467677Y-80207000D01*
X88507677Y-72262000D02*
X88507677Y-75010000D01*
X88507677Y-77490000D02*
X88507677Y-80238000D01*
X88547677Y-72230000D02*
X88547677Y-75010000D01*
X88547677Y-77490000D02*
X88547677Y-80270000D01*
X88587677Y-72200000D02*
X88587677Y-75010000D01*
X88587677Y-77490000D02*
X88587677Y-80300000D01*
X88627677Y-72170000D02*
X88627677Y-75010000D01*
X88627677Y-77490000D02*
X88627677Y-80330000D01*
X88667677Y-72141000D02*
X88667677Y-75010000D01*
X88667677Y-77490000D02*
X88667677Y-80359000D01*
X88707677Y-72112000D02*
X88707677Y-75010000D01*
X88707677Y-77490000D02*
X88707677Y-80388000D01*
X88747677Y-72084000D02*
X88747677Y-75010000D01*
X88747677Y-77490000D02*
X88747677Y-80416000D01*
X88787677Y-72057000D02*
X88787677Y-75010000D01*
X88787677Y-77490000D02*
X88787677Y-80443000D01*
X88827677Y-72030000D02*
X88827677Y-75010000D01*
X88827677Y-77490000D02*
X88827677Y-80470000D01*
X88867677Y-72003000D02*
X88867677Y-75010000D01*
X88867677Y-77490000D02*
X88867677Y-80497000D01*
X88907677Y-71978000D02*
X88907677Y-75010000D01*
X88907677Y-77490000D02*
X88907677Y-80522000D01*
X88947677Y-71952000D02*
X88947677Y-75010000D01*
X88947677Y-77490000D02*
X88947677Y-80548000D01*
X88987677Y-71927000D02*
X88987677Y-75010000D01*
X88987677Y-77490000D02*
X88987677Y-80573000D01*
X89027677Y-71903000D02*
X89027677Y-75010000D01*
X89027677Y-77490000D02*
X89027677Y-80597000D01*
X89067677Y-71879000D02*
X89067677Y-75010000D01*
X89067677Y-77490000D02*
X89067677Y-80621000D01*
X89107677Y-71856000D02*
X89107677Y-75010000D01*
X89107677Y-77490000D02*
X89107677Y-80644000D01*
X89147677Y-71833000D02*
X89147677Y-75010000D01*
X89147677Y-77490000D02*
X89147677Y-80667000D01*
X89187677Y-71811000D02*
X89187677Y-75010000D01*
X89187677Y-77490000D02*
X89187677Y-80689000D01*
X89227677Y-71789000D02*
X89227677Y-75010000D01*
X89227677Y-77490000D02*
X89227677Y-80711000D01*
X89267677Y-71767000D02*
X89267677Y-75010000D01*
X89267677Y-77490000D02*
X89267677Y-80733000D01*
X89307677Y-71746000D02*
X89307677Y-75010000D01*
X89307677Y-77490000D02*
X89307677Y-80754000D01*
X89347677Y-71726000D02*
X89347677Y-75010000D01*
X89347677Y-77490000D02*
X89347677Y-80774000D01*
X89387677Y-71706000D02*
X89387677Y-75010000D01*
X89387677Y-77490000D02*
X89387677Y-80794000D01*
X89427677Y-71686000D02*
X89427677Y-75010000D01*
X89427677Y-77490000D02*
X89427677Y-80814000D01*
X89467677Y-71667000D02*
X89467677Y-75010000D01*
X89467677Y-77490000D02*
X89467677Y-80833000D01*
X89507677Y-71648000D02*
X89507677Y-75010000D01*
X89507677Y-77490000D02*
X89507677Y-80852000D01*
X89547677Y-71630000D02*
X89547677Y-75010000D01*
X89547677Y-77490000D02*
X89547677Y-80870000D01*
X89587677Y-71612000D02*
X89587677Y-75010000D01*
X89587677Y-77490000D02*
X89587677Y-80888000D01*
X89627677Y-71594000D02*
X89627677Y-75010000D01*
X89627677Y-77490000D02*
X89627677Y-80906000D01*
X89667677Y-71577000D02*
X89667677Y-75010000D01*
X89667677Y-77490000D02*
X89667677Y-80923000D01*
X89707677Y-71560000D02*
X89707677Y-75010000D01*
X89707677Y-77490000D02*
X89707677Y-80940000D01*
X89747677Y-71544000D02*
X89747677Y-75010000D01*
X89747677Y-77490000D02*
X89747677Y-80956000D01*
X89787677Y-71528000D02*
X89787677Y-75010000D01*
X89787677Y-77490000D02*
X89787677Y-80972000D01*
X89827677Y-71512000D02*
X89827677Y-75010000D01*
X89827677Y-77490000D02*
X89827677Y-80988000D01*
X89867677Y-71497000D02*
X89867677Y-75010000D01*
X89867677Y-77490000D02*
X89867677Y-81003000D01*
X89907677Y-71482000D02*
X89907677Y-75010000D01*
X89907677Y-77490000D02*
X89907677Y-81018000D01*
X89947677Y-71468000D02*
X89947677Y-75010000D01*
X89947677Y-77490000D02*
X89947677Y-81032000D01*
X89987677Y-71453000D02*
X89987677Y-75010000D01*
X89987677Y-77490000D02*
X89987677Y-81047000D01*
X90027677Y-71440000D02*
X90027677Y-75010000D01*
X90027677Y-77490000D02*
X90027677Y-81060000D01*
X90067677Y-71426000D02*
X90067677Y-75010000D01*
X90067677Y-77490000D02*
X90067677Y-81074000D01*
X90107677Y-71413000D02*
X90107677Y-75010000D01*
X90107677Y-77490000D02*
X90107677Y-81087000D01*
X90147677Y-71401000D02*
X90147677Y-75010000D01*
X90147677Y-77490000D02*
X90147677Y-81099000D01*
X90187677Y-71389000D02*
X90187677Y-75010000D01*
X90187677Y-77490000D02*
X90187677Y-81111000D01*
X90227677Y-71377000D02*
X90227677Y-75010000D01*
X90227677Y-77490000D02*
X90227677Y-81123000D01*
X90267677Y-71365000D02*
X90267677Y-75010000D01*
X90267677Y-77490000D02*
X90267677Y-81135000D01*
X90307677Y-71354000D02*
X90307677Y-75010000D01*
X90307677Y-77490000D02*
X90307677Y-81146000D01*
X90347677Y-71343000D02*
X90347677Y-75010000D01*
X90347677Y-77490000D02*
X90347677Y-81157000D01*
X90387677Y-71333000D02*
X90387677Y-75010000D01*
X90387677Y-77490000D02*
X90387677Y-81167000D01*
X90427677Y-71322000D02*
X90427677Y-81178000D01*
X90467677Y-71313000D02*
X90467677Y-81187000D01*
X90507677Y-71303000D02*
X90507677Y-81197000D01*
X90547677Y-71294000D02*
X90547677Y-81206000D01*
X90587677Y-71285000D02*
X90587677Y-81215000D01*
X90627677Y-71277000D02*
X90627677Y-81223000D01*
X90667677Y-71269000D02*
X90667677Y-81231000D01*
X90707677Y-71261000D02*
X90707677Y-81239000D01*
X90747677Y-71253000D02*
X90747677Y-81247000D01*
X90787677Y-71246000D02*
X90787677Y-81254000D01*
X90827677Y-71239000D02*
X90827677Y-81261000D01*
X90867677Y-71233000D02*
X90867677Y-81267000D01*
X90907677Y-71227000D02*
X90907677Y-81273000D01*
X90947677Y-71221000D02*
X90947677Y-81279000D01*
X90987677Y-71215000D02*
X90987677Y-81285000D01*
X91027677Y-71210000D02*
X91027677Y-81290000D01*
X91067677Y-71205000D02*
X91067677Y-81295000D01*
X91107677Y-71201000D02*
X91107677Y-81299000D01*
X91147677Y-71196000D02*
X91147677Y-81304000D01*
X91187677Y-71193000D02*
X91187677Y-81307000D01*
X91227677Y-71189000D02*
X91227677Y-81311000D01*
X91267677Y-71186000D02*
X91267677Y-81314000D01*
X91307677Y-71183000D02*
X91307677Y-81317000D01*
X91347677Y-71180000D02*
X91347677Y-81320000D01*
X91387677Y-71178000D02*
X91387677Y-81322000D01*
X91427677Y-71176000D02*
X91427677Y-81324000D01*
X91467677Y-71174000D02*
X91467677Y-81326000D01*
X91507677Y-71173000D02*
X91507677Y-81327000D01*
X91547677Y-71171000D02*
X91547677Y-81329000D01*
X91587677Y-71171000D02*
X91587677Y-81329000D01*
X91627677Y-71170000D02*
X91627677Y-81330000D01*
X91667677Y-71170000D02*
X91667677Y-81330000D01*
X96647323Y-72875000D02*
X96647323Y-73875000D01*
X97147323Y-73375000D02*
X96147323Y-73375000D01*
X96787677Y-76250000D02*
G75*
G02*
X86547677Y-76250000I-5120000J0D01*
G01*
X86547677Y-76250000D02*
G75*
G02*
X96787677Y-76250000I5120000J0D01*
G01*
%TO.C,C13*%
X131423752Y-84065000D02*
X130901248Y-84065000D01*
X131423752Y-85535000D02*
X130901248Y-85535000D01*
%TD*%
M02*
