%TF.GenerationSoftware,KiCad,Pcbnew,9.0.7*%
%TF.CreationDate,2026-03-04T10:02:01+01:00*%
%TF.ProjectId,power-pcb,706f7765-722d-4706-9362-2e6b69636164,rev?*%
%TF.SameCoordinates,Original*%
%TF.FileFunction,Paste,Top*%
%TF.FilePolarity,Positive*%
%FSLAX46Y46*%
G04 Gerber Fmt 4.6, Leading zero omitted, Abs format (unit mm)*
G04 Created by KiCad (PCBNEW 9.0.7) date 2026-03-04 10:02:01*
%MOMM*%
%LPD*%
G01*
G04 APERTURE LIST*
G04 Aperture macros list*
%AMRoundRect*
0 Rectangle with rounded corners*
0 $1 Rounding radius*
0 $2 $3 $4 $5 $6 $7 $8 $9 X,Y pos of 4 corners*
0 Add a 4 corners polygon primitive as box body*
4,1,4,$2,$3,$4,$5,$6,$7,$8,$9,$2,$3,0*
0 Add four circle primitives for the rounded corners*
1,1,$1+$1,$2,$3*
1,1,$1+$1,$4,$5*
1,1,$1+$1,$6,$7*
1,1,$1+$1,$8,$9*
0 Add four rect primitives between the rounded corners*
20,1,$1+$1,$2,$3,$4,$5,0*
20,1,$1+$1,$4,$5,$6,$7,0*
20,1,$1+$1,$6,$7,$8,$9,0*
20,1,$1+$1,$8,$9,$2,$3,0*%
G04 Aperture macros list end*
%ADD10RoundRect,0.250000X2.025000X2.375000X-2.025000X2.375000X-2.025000X-2.375000X2.025000X-2.375000X0*%
%ADD11RoundRect,0.200000X2.100000X0.200000X-2.100000X0.200000X-2.100000X-0.200000X2.100000X-0.200000X0*%
%ADD12RoundRect,0.250000X-0.450000X0.350000X-0.450000X-0.350000X0.450000X-0.350000X0.450000X0.350000X0*%
%ADD13RoundRect,0.250000X0.350000X0.450000X-0.350000X0.450000X-0.350000X-0.450000X0.350000X-0.450000X0*%
%ADD14RoundRect,0.250000X0.450000X-0.350000X0.450000X0.350000X-0.450000X0.350000X-0.450000X-0.350000X0*%
%ADD15RoundRect,0.250000X0.325000X0.450000X-0.325000X0.450000X-0.325000X-0.450000X0.325000X-0.450000X0*%
%ADD16RoundRect,0.250000X0.337500X0.475000X-0.337500X0.475000X-0.337500X-0.475000X0.337500X-0.475000X0*%
%ADD17RoundRect,0.407500X0.407500X-0.415000X0.407500X0.415000X-0.407500X0.415000X-0.407500X-0.415000X0*%
%ADD18R,0.585000X0.510000*%
%ADD19R,0.470000X0.410000*%
%ADD20RoundRect,0.102500X0.102500X-0.257500X0.102500X0.257500X-0.102500X0.257500X-0.102500X-0.257500X0*%
%ADD21RoundRect,0.250000X-0.350000X-0.450000X0.350000X-0.450000X0.350000X0.450000X-0.350000X0.450000X0*%
%ADD22RoundRect,0.407500X-0.407500X0.415000X-0.407500X-0.415000X0.407500X-0.415000X0.407500X0.415000X0*%
%ADD23RoundRect,0.102500X-0.102500X0.257500X-0.102500X-0.257500X0.102500X-0.257500X0.102500X0.257500X0*%
%ADD24RoundRect,0.100000X-0.900000X-0.100000X0.900000X-0.100000X0.900000X0.100000X-0.900000X0.100000X0*%
%ADD25RoundRect,0.250000X-0.337500X-0.475000X0.337500X-0.475000X0.337500X0.475000X-0.337500X0.475000X0*%
G04 APERTURE END LIST*
D10*
%TO.C,U1*%
X130925000Y-58275000D03*
X130925000Y-52725000D03*
X126075000Y-58275000D03*
X126075000Y-52725000D03*
D11*
X137650000Y-59310000D03*
X137650000Y-58040000D03*
X137650000Y-56770000D03*
X137650000Y-55500000D03*
X137650000Y-54230000D03*
X137650000Y-52960000D03*
X137650000Y-51690000D03*
%TD*%
D12*
%TO.C,R5*%
X77730000Y-61462500D03*
X77730000Y-63462500D03*
%TD*%
D13*
%TO.C,R14*%
X60100000Y-72000000D03*
X58100000Y-72000000D03*
%TD*%
D14*
%TO.C,R13*%
X65567677Y-73900000D03*
X65567677Y-71900000D03*
%TD*%
D15*
%TO.C,D2*%
X182250000Y-59600000D03*
X180200000Y-59600000D03*
%TD*%
D16*
%TO.C,C6*%
X72137500Y-79400000D03*
X70062500Y-79400000D03*
%TD*%
D17*
%TO.C,Q2*%
X88965000Y-54255000D03*
X90895000Y-54255000D03*
X88965000Y-52310000D03*
X90895000Y-52310000D03*
D18*
X87657500Y-54362500D03*
X92202500Y-54362500D03*
D19*
X87715000Y-51492500D03*
X92145000Y-51492500D03*
D20*
X91835000Y-57077500D03*
X88025000Y-57077500D03*
X89295000Y-57077500D03*
X90565000Y-57077500D03*
%TD*%
D12*
%TO.C,R6*%
X139075000Y-62025000D03*
X139075000Y-64025000D03*
%TD*%
D16*
%TO.C,C9*%
X96837500Y-80300000D03*
X94762500Y-80300000D03*
%TD*%
D21*
%TO.C,R15*%
X53400000Y-72000000D03*
X55400000Y-72000000D03*
%TD*%
D13*
%TO.C,R26*%
X110700000Y-71900000D03*
X108700000Y-71900000D03*
%TD*%
D22*
%TO.C,Q1*%
X82130000Y-54722500D03*
X80200000Y-54722500D03*
X82130000Y-56667500D03*
X80200000Y-56667500D03*
D18*
X83437500Y-54615000D03*
X78892500Y-54615000D03*
D19*
X83380000Y-57485000D03*
X78950000Y-57485000D03*
D23*
X79260000Y-51900000D03*
X83070000Y-51900000D03*
X81800000Y-51900000D03*
X80530000Y-51900000D03*
%TD*%
D24*
%TO.C,U2*%
X86430000Y-60362500D03*
X86430000Y-61002500D03*
X86430000Y-61662500D03*
X86430000Y-62302500D03*
X89850000Y-62302500D03*
X89850000Y-61662500D03*
X89850000Y-61002500D03*
X89850000Y-60362500D03*
%TD*%
D21*
%TO.C,R2*%
X88330000Y-64162500D03*
X90330000Y-64162500D03*
%TD*%
D14*
%TO.C,R21*%
X140100000Y-73800000D03*
X140100000Y-71800000D03*
%TD*%
%TO.C,R22*%
X134000000Y-74000000D03*
X134000000Y-72000000D03*
%TD*%
%TO.C,R23*%
X130600000Y-74000000D03*
X130600000Y-72000000D03*
%TD*%
%TO.C,R17*%
X90800000Y-73850000D03*
X90800000Y-71850000D03*
%TD*%
D12*
%TO.C,R3*%
X83830000Y-59562500D03*
X83830000Y-61562500D03*
%TD*%
D16*
%TO.C,C15*%
X122237500Y-80100000D03*
X120162500Y-80100000D03*
%TD*%
D14*
%TO.C,R25*%
X116100000Y-73900000D03*
X116100000Y-71900000D03*
%TD*%
D21*
%TO.C,R27*%
X103800000Y-71800000D03*
X105800000Y-71800000D03*
%TD*%
D25*
%TO.C,C2*%
X79792500Y-59562500D03*
X81867500Y-59562500D03*
%TD*%
D16*
%TO.C,C12*%
X144937500Y-79800000D03*
X142862500Y-79800000D03*
%TD*%
D13*
%TO.C,R16*%
X152600000Y-68700000D03*
X150600000Y-68700000D03*
%TD*%
D21*
%TO.C,R1*%
X134675000Y-62325000D03*
X136675000Y-62325000D03*
%TD*%
D12*
%TO.C,R4*%
X81130000Y-61662500D03*
X81130000Y-63662500D03*
%TD*%
M02*
